<svg width="25" height="21" viewBox="0 0 25 21" fill="none" xmlns="http://www.w3.org/2000/svg">
<mask id="mask0_16_1735" style="mask-type:luminance" maskUnits="userSpaceOnUse" x="19" y="4" width="6" height="17">
<path d="M19.5128 4.37625H19.3628V4.52625V20.39V20.54H19.5128H24.2309H24.3809V20.39V4.52625V4.37625H24.2309H19.5128Z" fill="white" stroke="white" stroke-width="0.3"/>
</mask>
<g mask="url(#mask0_16_1735)">
<path d="M19.7808 4.54863L19.7808 4.54864C19.8501 4.5203 19.9236 4.50637 19.9977 4.50637H23.7218C23.7965 4.50637 23.8684 4.52053 23.9376 4.5482L23.9402 4.54926L23.9402 4.54929C24.0093 4.57846 24.0706 4.61913 24.1239 4.67241C24.1778 4.72636 24.2179 4.78877 24.2465 4.85493L24.2481 4.85867L24.2481 4.85869C24.2757 4.92787 24.2899 4.99974 24.2899 5.07451V19.9707C24.2899 20.0464 24.2758 20.1183 24.2481 20.1877L24.2466 20.1915L24.2465 20.1914C24.2175 20.2587 24.177 20.3197 24.1239 20.3728C24.0723 20.4244 24.011 20.4674 23.9389 20.4965M19.7808 4.54863L19.5956 4.67241C19.5417 4.72637 19.5015 4.78877 19.473 4.85493L19.4729 4.85491L19.4714 4.85869C19.4446 4.92583 19.4284 4.9977 19.4284 5.07451V19.9707C19.4284 20.0485 19.4445 20.1203 19.4714 20.1877L19.4714 20.1877L19.473 20.1914C19.502 20.2587 19.5425 20.3197 19.5956 20.3728C19.6471 20.4243 19.7081 20.4672 19.78 20.4963C19.8503 20.5263 19.9242 20.54 19.9977 20.54H23.7218C23.7962 20.54 23.8686 20.526 23.9389 20.4965M19.7808 4.54863L19.7793 4.54929M19.7808 4.54863L19.7793 4.54929M23.9389 20.4965C23.9385 20.4967 23.938 20.4968 23.9376 20.497L23.8819 20.3577L23.9402 20.4959C23.9398 20.4961 23.9394 20.4963 23.9389 20.4965ZM19.7793 4.54929C19.7102 4.57846 19.6489 4.61913 19.5956 4.67241L19.7793 4.54929ZM23.1536 19.4026H20.5659V5.64379H23.1536V19.4026Z" fill="#292D32" stroke="#292D32" stroke-width="0.3"/>
</g>
<mask id="mask1_16_1735" style="mask-type:luminance" maskUnits="userSpaceOnUse" x="13" y="8" width="6" height="13">
<path d="M13.91 8.20974H13.76V8.35974V20.3901V20.5401H13.91H18.6281H18.7781V20.3901V8.35974V8.20974H18.6281H13.91Z" fill="white" stroke="white" stroke-width="0.3"/>
</mask>
<g mask="url(#mask1_16_1735)">
<path d="M14.1954 8.27244L14.1954 8.27239L14.1917 8.27401C14.1255 8.30258 14.0631 8.34269 14.0092 8.39665L14.0092 8.39665C13.9552 8.45061 13.9151 8.51301 13.8865 8.57917L13.8865 8.57915L13.8849 8.58293C13.8573 8.65211 13.8431 8.72398 13.8431 8.79875V19.9709C13.8431 20.0466 13.8572 20.1185 13.8849 20.1879L13.8849 20.1879L13.8865 20.1916C13.9156 20.2589 13.956 20.3199 14.0092 20.373C14.0614 20.4253 14.1235 20.4676 14.1928 20.4961C14.2635 20.526 14.3364 20.5402 14.4113 20.5402H18.1353C18.2102 20.5402 18.2829 20.5264 18.353 20.4965C18.4249 20.4674 18.4859 20.4245 18.5374 20.373C18.5888 20.3216 18.6315 20.2608 18.6605 20.1905C18.6905 20.1196 18.7046 20.0467 18.7046 19.9709V8.79875C18.7046 8.72417 18.6905 8.65156 18.6609 8.58107C18.6323 8.5115 18.5899 8.44911 18.5374 8.39665C18.4841 8.34337 18.4229 8.3027 18.3538 8.27353L18.3538 8.27352L18.3522 8.27288C18.2831 8.24462 18.2108 8.23062 18.1353 8.23062H14.4113C14.3365 8.23062 14.2646 8.24477 14.1954 8.27244ZM17.5672 19.4028H14.9805V9.36804H17.5672V19.4028Z" fill="#292D32" stroke="#292D32" stroke-width="0.3"/>
</g>
<mask id="mask2_16_1735" style="mask-type:luminance" maskUnits="userSpaceOnUse" x="8" y="11" width="6" height="10">
<path d="M8.30719 11.7483H8.15719V11.8983V20.39V20.54H8.30719H13.0253H13.1753V20.39V11.8983V11.7483H13.0253H8.30719Z" fill="white" stroke="white" stroke-width="0.3"/>
</mask>
<g mask="url(#mask2_16_1735)">
<path d="M8.42347 12.1205L8.42347 12.1205C8.47622 12.0678 8.53756 12.0266 8.60787 11.9982C8.67793 11.9683 8.75067 11.9545 8.82557 11.9545H12.5496C12.6245 11.9545 12.6973 11.9687 12.7681 11.9986L12.7097 12.1367L12.7665 11.9979C12.8347 12.0258 12.8978 12.0666 12.9517 12.1205L12.8457 12.2266L12.9517 12.1205C13.0054 12.1742 13.0461 12.237 13.074 12.3049M8.42347 12.1205L8.66546 20.3578C8.71614 20.3797 8.76913 20.39 8.82557 20.39H12.5496C12.6049 20.39 12.6579 20.3797 12.7097 20.3578L12.7665 20.4966C12.7668 20.4965 12.767 20.4964 12.7673 20.4963C12.8369 20.4677 12.8993 20.4253 12.9517 20.3728C13.0045 20.3201 13.0456 20.2587 13.074 20.1884C13.104 20.1184 13.1178 20.0456 13.1178 19.9707V12.5226C13.1178 12.4481 13.1037 12.3754 13.074 12.3049M8.42347 12.1205C8.37081 12.1732 8.32829 12.2358 8.2997 12.3057L8.43853 12.3625M8.42347 12.1205L8.60788 20.4963C8.53598 20.4672 8.47493 20.4243 8.42347 20.3728C8.372 20.3214 8.32909 20.2603 8.30002 20.1884C8.27007 20.1184 8.25628 20.0456 8.25628 19.9707V12.5226C8.25628 12.4478 8.27048 12.3749 8.30035 12.3042L8.43853 12.3625M13.074 12.3049C13.0739 12.3047 13.0738 12.3044 13.0737 12.3042L12.9355 12.3625M13.074 12.3049C13.0741 12.3052 13.0742 12.3055 13.0743 12.3057L12.9355 12.3625M12.9355 12.3625C12.9574 12.4143 12.9678 12.4673 12.9678 12.5226V19.9707C12.9678 20.0272 12.9574 20.0802 12.9355 20.1308V12.3625ZM8.43853 12.3625C8.41665 12.4143 8.40628 12.4673 8.40628 12.5226V19.9707C8.40628 20.0272 8.41665 20.0802 8.43853 20.1308L8.66546 12.1367C8.61362 12.1575 8.5687 12.1874 8.52953 12.2266C8.49037 12.2658 8.45927 12.3118 8.43853 12.3625ZM11.9803 19.4026H9.3937V13.0919H11.9803V19.4026Z" fill="#292D32" stroke="#292D32" stroke-width="0.3"/>
</g>
<mask id="mask3_16_1735" style="mask-type:luminance" maskUnits="userSpaceOnUse" x="2" y="15" width="6" height="6">
<path d="M2.70436 15.5818H2.55436V15.7318V20.39V20.54H2.70436H7.42249H7.57249V20.39V15.7318V15.5818H7.42249H2.70436Z" fill="white" stroke="white" stroke-width="0.3"/>
</mask>
<g mask="url(#mask3_16_1735)">
<path d="M2.71417 16.0273L2.71422 16.0273C2.74279 15.9611 2.78291 15.8987 2.83686 15.8448L2.71417 16.0273ZM2.71417 16.0273L2.71266 16.031M2.71417 16.0273L2.71266 16.031M2.71266 16.031C2.68499 16.1002 2.67083 16.1721 2.67083 16.2469V19.9709C2.67083 20.0464 2.68484 20.1188 2.7131 20.1878L2.71309 20.1878M2.71266 16.031L2.71309 20.1878M2.71309 20.1878L2.71374 20.1894M2.71309 20.1878L2.71374 20.1894M2.71374 20.1894C2.74292 20.2585 2.78359 20.3197 2.83687 20.373C2.88833 20.4245 2.94938 20.4674 3.02127 20.4965C3.09154 20.5265 3.16543 20.5402 3.23897 20.5402H6.96302C7.03656 20.5402 7.11045 20.5265 7.18072 20.4965C7.25261 20.4674 7.31366 20.4245 7.36512 20.373C7.4184 20.3197 7.45907 20.2585 7.48824 20.1894L7.48825 20.1894M2.71374 20.1894L7.48825 20.1894M7.48825 20.1894L7.48889 20.1878M7.48825 20.1894L7.48889 20.1878M7.48889 20.1878C7.51633 20.1207 7.53231 20.0485 7.53231 19.9709V16.2469C7.53231 16.1701 7.51618 16.0982 7.48932 16.031L7.48938 16.031M7.48889 20.1878L7.48938 16.031M7.48938 16.031L7.48776 16.0273M7.48938 16.031L7.48776 16.0273M7.48776 16.0273C7.45919 15.9611 7.41908 15.8987 7.36512 15.8448C7.31237 15.792 7.25103 15.7509 7.18072 15.7225C7.11045 15.6924 7.03656 15.6787 6.96302 15.6787H3.23897M7.48776 16.0273L3.23897 15.6787M3.23897 15.6787C3.16543 15.6787 3.09154 15.6924 3.02127 15.7225M3.23897 15.6787L3.02127 15.7225M3.02127 15.7225C2.95096 15.7509 2.88962 15.792 2.83687 15.8448L3.02127 15.7225ZM6.39488 19.4028H3.8071V16.8162H6.39488V19.4028Z" fill="#292D32" stroke="#292D32" stroke-width="0.3"/>
</g>
<path d="M15.6475 1.1424C15.6024 1.21315 15.5751 1.28865 15.5618 1.3682L15.5617 1.36819L15.5613 1.37124C15.5498 1.44893 15.5509 1.52929 15.5718 1.61149C15.5904 1.68934 15.623 1.76304 15.6733 1.83039C15.7217 1.89696 15.782 1.95125 15.8513 1.99312C15.9195 2.0343 15.9951 2.06372 16.0788 2.07599C16.0792 2.07605 16.0796 2.0761 16.08 2.07616L16.7015 2.17525L1.09827 13.7681L1.09827 13.7681L1.09726 13.7689C1.03427 13.8165 0.979019 13.8756 0.936932 13.9479C0.89332 14.0194 0.868088 14.0962 0.85649 14.1734L0.856423 14.1738C0.844342 14.2559 0.849619 14.336 0.869574 14.4141C0.889373 14.4969 0.926552 14.569 0.974362 14.6327L0.974352 14.6327L0.975498 14.6342C1.02407 14.6973 1.08332 14.7511 1.15297 14.7931L1.15294 14.7932L1.15664 14.7953C1.2259 14.8345 1.30063 14.8617 1.38291 14.8736L1.3829 14.8736L1.38592 14.874C1.46459 14.8838 1.54444 14.8808 1.62534 14.8603L1.62609 14.8601C1.70515 14.8397 1.77826 14.8041 1.84356 14.756L1.84406 14.7556L17.3883 3.20561L17.2998 3.74907L17.2996 3.75087C17.2874 3.83195 17.2927 3.91243 17.3128 3.98978C17.3319 4.06805 17.3664 4.14125 17.4145 4.20582L17.4144 4.20583L17.416 4.20784C17.4636 4.2697 17.5213 4.32397 17.5922 4.36678L17.5931 4.36733C17.6593 4.40672 17.7343 4.43593 17.8162 4.44824C17.8973 4.4617 17.978 4.45805 18.0558 4.43961L18.0213 4.29365M15.6475 1.1424C15.69 1.07364 15.745 1.01403 15.8121 0.96627L15.8991 1.0885L15.8121 0.966269C15.878 0.91941 15.9517 0.885297 16.0325 0.866556L16.0664 1.01268L16.0325 0.866556C16.1117 0.848197 16.1925 0.844627 16.275 0.858257L16.2898 0.86069L16.2981 0.863836C16.2998 0.864199 16.3058 0.865564 16.318 0.867883C16.3366 0.87141 16.3626 0.875893 16.3955 0.881278C16.4612 0.892015 16.5509 0.905739 16.6571 0.921668C16.7309 0.932728 16.8125 0.94484 16.8991 0.957692C17.061 0.98171 17.2403 1.00831 17.4182 1.03548C17.6913 1.07719 17.9641 1.12067 18.1702 1.15896C18.2728 1.17801 18.3618 1.19631 18.4268 1.21296C18.4586 1.2211 18.4895 1.23003 18.5147 1.23989C18.5267 1.24458 18.5436 1.25183 18.5601 1.26244C18.5668 1.26667 18.5762 1.27321 18.5861 1.28245C18.6812 1.34648 18.7551 1.43219 18.8045 1.5378C18.8566 1.64934 18.8754 1.7677 18.8602 1.88968L18.8595 1.89514L18.8594 1.89513L18.5274 3.94622L18.5266 3.95072L18.5266 3.95071C18.5113 4.02958 18.4823 4.10231 18.44 4.16934L18.4385 4.1716C18.3949 4.23809 18.3405 4.29549 18.2742 4.34263L18.2722 4.34411L18.2721 4.34409C18.2065 4.3891 18.1348 4.4213 18.0551 4.43977L18.0213 4.29365M15.6475 1.1424C15.6477 1.14203 15.648 1.14166 15.6482 1.14129L15.7745 1.22216L15.6468 1.14353C15.647 1.14316 15.6473 1.14278 15.6475 1.1424ZM18.0213 4.29365C17.9616 4.30779 17.9006 4.31036 17.8397 4.30007L16.2506 1.00625C16.2804 1.01752 16.5425 1.05643 16.8776 1.10615C17.536 1.20384 18.4758 1.34328 18.487 1.39694C18.5674 1.44706 18.6283 1.51517 18.6686 1.60127C18.7088 1.68738 18.723 1.77734 18.7114 1.87115L18.3793 3.92224C18.3676 3.98264 18.3456 4.0379 18.3131 4.08931C18.2794 4.14072 18.2379 4.18441 18.1873 4.2204C18.1367 4.25509 18.0822 4.27951 18.0213 4.29365Z" fill="#292D32" stroke="#292D32" stroke-width="0.3"/>
</svg>
