<svg width="32" height="17" viewBox="0 0 32 17" fill="none" xmlns="http://www.w3.org/2000/svg">
<path d="M15.9715 8.35163L15.9813 8.35359H15.9913H15.9915H15.9918H15.992H15.9923H15.9925H15.9928H15.9931H15.9933H15.9936H15.9938H15.9941H15.9943H15.9946H15.9948H15.9951H15.9953H15.9956H15.9958H15.996H15.9963H15.9965H15.9968H15.997H15.9973H15.9975H15.9977H15.998H15.9982H15.9984H15.9987H15.9989H15.9991H15.9994H15.9996H15.9998H16H16.0003H16.0005H16.0007H16.001H16.0012H16.0014H16.0016H16.0018H16.0021H16.0023H16.0025H16.0027H16.0029H16.0031H16.0034H16.0036H16.0038H16.004H16.0042H16.0044H16.0046H16.0048H16.0051H16.0053H16.0055H16.0057H16.0059H16.0061H16.0063H16.0065H16.0067H16.0069H16.0071H16.0073H16.0075H16.0077H16.0079H16.0081H16.0083H16.0085H16.0087H16.0089H16.0091H16.0093H16.0095H16.0097H16.0098H16.01H16.0102H16.0104H16.0106H16.0108H16.011H16.0112H16.0113H16.0115H16.0117H16.0119H16.0121H16.0123H16.0124H16.0126H16.0128H16.013H16.0132H16.0133H16.0135H16.0137H16.0139H16.0141H16.0142H16.0144H16.0146H16.0148H16.0149H16.0151H16.0153H16.0154H16.0156H16.0158H16.016H16.0161H16.0163H16.0165H16.0166H16.0168H16.017H16.0171H16.0173H16.0175H16.0176H16.0178H16.0179H16.0181H16.0183H16.0184H16.0186H16.0188H16.0189H16.0191H16.0192H16.0194H16.0196H16.0197H16.0199H16.02H16.0202H16.0203H16.0205H16.0207H16.0208H16.021H16.0211H16.0213H16.0214H16.0216H16.0217H16.0219H16.022H16.0222H16.0223H16.0225H16.0226H16.0228H16.0229H16.0231H16.0232H16.0234H16.0235H16.0237H16.0238H16.024H16.0241H16.0243H16.0244H16.0245H16.0247H16.0248H16.025H16.0251H16.0253H16.0254H16.0256H16.0257H16.0258H16.026H16.0261H16.0263H16.0264H16.0265H16.0267H16.0268H16.027H16.0271H16.0272H16.0274H16.0275H16.0277H16.0278H16.0279H16.0281H16.0282H16.0284H16.0285H16.0286H16.0288H16.0289H16.029H16.0292H16.0293H16.0294H16.0296H16.0297H16.0299H16.03H16.0301H16.0303H16.0304H16.0305H16.0307H16.0308H16.0309H16.0311H16.0312H16.0313H16.0315H16.0316H16.0317H16.0319H16.032H16.0321H16.0323H16.0324H16.0325H16.0327H16.0328H16.0329H16.033H16.0332H16.0333H16.0334H16.0336H16.0337H16.0338H16.034H16.0341H16.0342H16.0344H16.0345H16.0346H16.0348H16.0349H16.035H16.0352H16.0353H16.0354H16.0355H16.0357H16.0358H16.0359H16.0361H16.0362H16.0363H16.0365H16.0366H16.0367H16.0369H16.037H16.0371H16.0372H16.0374H16.0375H16.0376H16.0378H16.0379H16.038H16.0382H16.0383H16.0384H16.0386H16.0387H16.0388H16.039H16.0391H16.0392H16.0394H16.0395H16.0396H16.0397H16.0399H16.04H16.0401H16.0403H16.0404H16.0405H16.0407H16.0408H16.0409H16.0411H16.0412H16.0414H16.0415H16.0416H16.0418H16.0419H16.042H16.0422H16.0423H16.0424H16.0426H16.0427H16.0428H16.043H16.0431H16.0432H16.0434H16.0435H16.0437H16.0438H16.0439H16.0441H16.0442H16.0444H16.0445H16.0446H16.0448H16.0449H16.045H16.0452H16.0453H16.0455H16.0456H16.0458H16.0459H16.046H16.0462H16.0463H16.0465H16.0466H16.0468H16.0469H16.047H16.0472H16.0473H16.0475H16.0476H16.0478H16.0479H16.0481H16.0482H16.0484H16.0485H16.0486H16.0488H16.0489H16.0491H16.0492H16.0494H16.0495H16.0497H16.0498H16.05H16.0501H16.0503H16.0505H16.0506H16.0508H16.0509H16.0511H16.0512H16.0514H16.0515H16.0517H16.0518H16.052H16.0522H16.0523H16.0525H16.0526H16.0528H16.053H16.0531H16.0533H16.0534H16.0536H16.0538H16.0539H16.0541H16.0543H16.0544H16.0546H16.0547H16.0549H16.0551H16.0552H16.0554H16.0556H16.0558H16.0559H16.0561H16.0563H16.0564H16.0566H16.0568H16.0569H16.0571H16.0573H16.0575H16.0576H16.0578H16.058H16.0582H16.0584H16.0585H16.0587H16.0589H16.0591H16.0592H16.0594H16.0596H16.0598H16.06H16.0602H16.0603H16.0605H16.0607H16.0609H16.0611H16.0613H16.0615H16.0617H16.0618H16.062H16.0622H16.0624H16.0626H16.0628H16.063H16.0632H16.0634H16.0636H16.0638H16.064H16.0642H16.0644H16.0646H16.0648H16.065H16.0652H16.0654H16.0656H16.0658H16.066H16.0662H16.0664H16.0666H16.0668H16.067H16.0672H16.0674H16.0677H16.0679H16.0681H16.0683H16.0685H16.0687H16.0689H16.0692H16.0694H16.0696H16.0698H16.07H16.0703H16.0705H16.0707H16.0709H16.0711H16.0714H16.0716H16.0718H16.0721H16.0723H16.0725H16.0727H16.073H16.0732H16.0734H16.0737H16.0739H16.0741H16.0744H16.0746H16.0749H16.0751H16.0753H16.0756H16.0758H16.0761H16.0763H16.0766H16.0768H16.0771H16.0773H16.0776H16.0778H16.0781H16.0783H16.0786H16.0788H16.0791H16.0793H16.0796H16.0798H16.0801H16.0804H16.0806H16.0809H16.0811H16.0814H16.0816H16.0819H16.0821H16.0824H16.0826H16.0828H16.0831H16.0833H16.0836H16.0838H16.084H16.0843H16.0845H16.0847H16.085H16.0852H16.0855H16.0857H16.0859H16.0861H16.0864H16.0866H16.0868H16.0871H16.0873H16.0875H16.0877H16.088H16.0882H16.0884H16.0886H16.0888H16.0891H16.0893H16.0895H16.0897H16.0899H16.0902H16.0904H16.0906H16.0908H16.091H16.0912H16.0914H16.0916H16.0919H16.0921H16.0923H16.0925H16.0927H16.0929H16.0931H16.0933H16.0935H16.0937H16.0939H16.0941H16.0943H16.0945H16.0947H16.0949H16.0951H16.0953H16.0955H16.0957H16.0959H16.0961H16.0963H16.0965H16.0967H16.0969H16.0971H16.0973H16.0975H16.0977H16.0979H16.0981H16.0982H16.0984H16.0986H16.0988H16.099H16.0992H16.0994H16.0996H16.0998H16.0999H16.1001H16.1003H16.1005H16.1007H16.1009H16.1011H16.1012H16.1014H16.1016H16.1018H16.102H16.1021H16.1023H16.1025H16.1027H16.1029H16.103H16.1032H16.1034H16.1036H16.1038H16.1039H16.1041H16.1043H16.1045H16.1046H16.1048H16.105H16.1052H16.1054H16.1055H16.1057H16.1059H16.106H16.1062H16.1064H16.1066H16.1067H16.1069H16.1071H16.1073H16.1074H16.1076H16.1078H16.108H16.1081H16.1083H16.1085H16.1086H16.1088H16.109H16.1091H16.1093H16.1095H16.1097H16.1098H16.11H16.1102H16.1103H16.1105H16.1107H16.1108H16.111H16.1112H16.1114H16.1115H16.1117H16.1119H16.112H16.1122H16.1124H16.1125H16.1127H16.1129H16.113H16.1132H16.1134H16.1135H16.1137H16.1139H16.1141H16.1142H16.1144H16.1146H16.1147H16.1149H16.1151H16.1152H16.1154H16.1156H16.1157H16.1159H16.1161H16.1162H16.1164H16.1166H16.1168H16.1169H16.1171H16.1173H16.1174H16.1176H16.1178H16.1179H16.1181H16.1183H16.1185H16.1186H16.1188H16.119H16.1191H16.1193H16.1195H16.1197H16.1198H16.12H16.1202H16.1203H16.1205H16.1207H16.1209H16.121H16.1212H16.1214H16.1216H16.1217H16.1219H16.1221H16.1223H16.1224H16.1226H16.1228H16.123H16.1231H16.1233H16.1235H16.1237H16.1239H16.124H16.1242H16.1244H16.1246H16.1248H16.1249H16.1251H16.1253H16.1255H16.1257H16.1259H16.126H16.1262H16.1264H16.1266H16.1268H16.127H16.1271H16.1273H16.1275H16.1277H16.1279H16.1281H16.1283H16.1285H16.1286H16.1288H16.129H16.1292H16.1294H16.1296H16.1298H16.13H16.1302H16.1304H16.1306H16.1308H16.131H16.1312H16.1314H16.1316H16.1318H16.132H16.1322H16.1324H16.1326H16.1328H16.133H16.1332H16.1334H16.1336H16.1338H16.134H16.1342H16.1344H16.1346H16.1348H16.135H16.1352H16.1354H16.1356H16.1359H16.1361H16.1363H16.1365H16.1367H16.1369H16.1371H16.1374H16.1376H16.1378H16.138H16.1382H16.1384H16.1387H16.1389H16.1391H16.1393H16.1396H16.1398H16.14H16.1402H16.1405H16.1407H16.1409H16.1411H16.1414H16.1416H16.1418H16.1421H16.1423H16.1425H16.1428H16.143H16.1433H16.1435H16.1437H16.144H16.1442H16.1445H16.1447H16.1449H16.1452H16.1454H16.1457H16.1459H16.1462H16.1464H16.1467H16.1469H16.1472H16.1474H16.1477H16.148H16.1482H16.1485H16.1487H16.149H16.1492H16.1495H16.1498H16.15H16.1503H16.1506H16.1508H16.1511H16.1514H16.1516H16.1519H16.1522H16.1525H16.1527H16.153H16.1533H16.1536H16.1539H16.1541H16.1544H16.1547H16.155H16.1553H16.1556H16.1558H16.1561H16.1564H16.1567H16.157H16.1573H16.1576H16.1579H16.1582H16.1585H16.1588H16.1591H16.1594H16.1597H16.16H16.1603H16.1606H16.1609H16.1612H16.1615H16.1618H16.1622H16.1625H16.1628H16.1631H16.1634H16.1638H16.1641H16.1644H16.1647H16.165H16.1654H16.1657H16.166H16.1664H16.1667H16.167H16.1674H16.1677H16.168H16.1684H16.1687H16.1691H16.1694H16.1697H16.1701H16.1704H16.1708H16.1711H16.1715H16.1719H16.1722H16.1726H16.1729H16.1733H16.1736H16.174H16.1744H16.1747H16.1751H16.1755H16.1758H16.1762H16.1766H16.177H16.1773H16.1777H16.1781H16.1785H16.1789H16.1792H16.1796H16.18H16.1804H16.1808H16.1812H16.1816H16.182H16.1824H16.1828H16.1832H16.1836H16.184H16.1844H16.1848H16.1852H16.1856H16.186H16.1864H16.1869H16.1873H16.1877H16.1881H16.1885H16.189H16.1894H16.1898H16.1902H16.1907H16.1911H16.1915H16.192H16.1924H16.1929H16.1933H16.1937H16.1942H16.1946H16.1951H16.1955H16.196H16.1964H16.1969H16.1974H16.1978H16.1983H16.1987H16.1992H16.1997H16.2001H16.2006H16.2011H16.2016H16.202H16.2025H16.203H16.2035H16.204H16.2044H16.2049H16.2054H16.2059H16.2064H16.2069H16.2074H16.2079H16.2084H16.2089H16.2094H16.2099H16.2104H16.2109H16.2209L16.2307 8.35163L30.8719 5.40625L30.8719 5.40637L30.8767 5.40517C31.09 5.35128 31.3041 5.14205 31.3041 4.86883C31.3041 4.60599 31.1426 4.38508 30.8732 4.33167L16.2338 0.902635L16.2225 0.9H16.2109H16.2104H16.2099H16.2094H16.2089H16.2084H16.2079H16.2074H16.2069H16.2064H16.2059H16.2054H16.2049H16.2044H16.2039H16.2034H16.2029H16.2024H16.2019H16.2014H16.2009H16.2004H16.1999H16.1994H16.1989H16.1984H16.1979H16.1975H16.197H16.1965H16.196H16.1955H16.195H16.1946H16.1941H16.1936H16.1931H16.1926H16.1922H16.1917H16.1912H16.1907H16.1903H16.1898H16.1893H16.1888H16.1884H16.1879H16.1874H16.187H16.1865H16.186H16.1856H16.1851H16.1846H16.1842H16.1837H16.1833H16.1828H16.1823H16.1819H16.1814H16.181H16.1805H16.18H16.1796H16.1791H16.1787H16.1782H16.1778H16.1773H16.1769H16.1764H16.176H16.1755H16.1751H16.1746H16.1742H16.1737H16.1733H16.1729H16.1724H16.172H16.1715H16.1711H16.1706H16.1702H16.1698H16.1693H16.1689H16.1684H16.168H16.1676H16.1671H16.1667H16.1663H16.1658H16.1654H16.165H16.1645H16.1641H16.1637H16.1632H16.1628H16.1624H16.162H16.1615H16.1611H16.1607H16.1603H16.1598H16.1594H16.159H16.1586H16.1581H16.1577H16.1573H16.1569H16.1564H16.156H16.1556H16.1552H16.1548H16.1544H16.1539H16.1535H16.1531H16.1527H16.1523H16.1519H16.1514H16.151H16.1506H16.1502H16.1498H16.1494H16.149H16.1486H16.1481H16.1477H16.1473H16.1469H16.1465H16.1461H16.1457H16.1453H16.1449H16.1445H16.1441H16.1437H16.1432H16.1428H16.1424H16.142H16.1416H16.1412H16.1408H16.1404H16.14H16.1396H16.1392H16.1388H16.1384H16.138H16.1376H16.1372H16.1368H16.1364H16.136H16.1356H16.1352H16.1348H16.1344H16.134H16.1336H16.1332H16.1328H16.1324H16.1321H16.1317H16.1313H16.1309H16.1305H16.1301H16.1297H16.1293H16.1289H16.1285H16.1281H16.1277H16.1273H16.1269H16.1265H16.1262H16.1258H16.1254H16.125H16.1246H16.1242H16.1238H16.1234H16.123H16.1226H16.1223H16.1219H16.1215H16.1211H16.1207H16.1203H16.1199H16.1195H16.1191H16.1188H16.1184H16.118H16.1176H16.1172H16.1168H16.1164H16.116H16.1157H16.1153H16.1149H16.1145H16.1141H16.1137H16.1133H16.113H16.1126H16.1122H16.1118H16.1114H16.111H16.1106H16.1103H16.1099H16.1095H16.1091H16.1087H16.1083H16.108H16.1076H16.1072H16.1068H16.1064H16.106H16.1056H16.1053H16.1049H16.1045H16.1041H16.1037H16.1033H16.103H16.1026H16.1022H16.1018H16.1014H16.101H16.1006H16.1003H16.0999H16.0995H16.0991H16.0987H16.0983H16.098H16.0976H16.0972H16.0968H16.0964H16.096H16.0956H16.0953H16.0949H16.0945H16.0941H16.0937H16.0933H16.0929H16.0926H16.0922H16.0918H16.0914H16.091H16.0906H16.0902H16.0898H16.0895H16.0891H16.0887H16.0883H16.0879H16.0875H16.0871H16.0867H16.0864H16.086H16.0856H16.0852H16.0848H16.0844H16.084H16.0836H16.0832H16.0829H16.0825H16.0821H16.0817H16.0813H16.0809H16.0805H16.0801H16.0797H16.0793H16.0789H16.0785H16.0781H16.0778H16.0774H16.077H16.0766H16.0762H16.0758H16.0754H16.075H16.0746H16.0742H16.0738H16.0734H16.073H16.0726H16.0722H16.0718H16.0714H16.071H16.0706H16.0702H16.0698H16.0694H16.069H16.0686H16.0682H16.0678H16.0674H16.067H16.0666H16.0662H16.0658H16.0654H16.065H16.0646H16.0642H16.0638H16.0634H16.063H16.0626H16.0622H16.0617H16.0613H16.0609H16.0605H16.0601H16.0597H16.0593H16.0589H16.0585H16.0581H16.0576H16.0572H16.0568H16.0564H16.056H16.0556H16.0552H16.0547H16.0543H16.0539H16.0535H16.0531H16.0527H16.0522H16.0518H16.0514H16.051H16.0506H16.0501H16.0497H16.0493H16.0489H16.0484H16.048H16.0476H16.0472H16.0467H16.0463H16.0459H16.0455H16.045H16.0446H16.0442H16.0437H16.0433H16.0429H16.0424H16.042H16.0416H16.0411H16.0407H16.0403H16.0398H16.0394H16.039H16.0385H16.0381H16.0377H16.0372H16.0368H16.0363H16.0359H16.0354H16.035H16.0346H16.0341H16.0337H16.0332H16.0328H16.0323H16.0319H16.0314H16.031H16.0305H16.0301H16.0296H16.0292H16.0287H16.0283H16.0278H16.0274H16.0269H16.0264H16.026H16.0255H16.0251H16.0246H16.0241H16.0237H16.0232H16.0228H16.0223H16.0218H16.0214H16.0209H16.0204H16.02H16.0195H16.019H16.0186H16.0181H16.0176H16.0171H16.0167H16.0162H16.0157H16.0152H16.0148H16.0143H16.0138H16.0133H16.0128H16.0124H16.0119H16.0114H16.0109H16.0104H16.0099H16.0094H16.009H16.0085H16.008H16.0075H16.007H16.0065H16.006H16.0055H16.005H16.0045H16.004H16.0035H16.003H16.0025H16.002H16.0015H16.001H16.0005H16H15.9995H15.999H15.9985H15.998H15.9975H15.997H15.9964H15.9959H15.9954H15.9949H15.9944H15.9939H15.9933H15.9928H15.9923H15.9918H15.9913H15.9797L15.9684 0.902636L1.33082 4.33167C1.06142 4.38508 0.9 4.606 0.9 4.86883C0.9 5.13298 1.0627 5.35145 1.33195 5.40621L1.33216 5.40625L15.9715 8.35163ZM16.0806 7.22809L4.01573 4.77245L16.0806 1.93681L28.1437 4.77245L16.0806 7.22809Z" fill="#292D32" stroke="#292D32" stroke-width="0.2"/>
<path d="M6.51295 14.6115L6.51279 14.6117L6.5179 14.6162C6.55075 14.6448 6.60389 14.6748 6.66505 14.7048C6.72907 14.7363 6.8112 14.7723 6.90903 14.812C7.10485 14.8914 7.36769 14.987 7.68284 15.0922C8.31335 15.3025 9.1567 15.5518 10.0988 15.7859C11.9797 16.2533 14.2652 16.663 16.0385 16.5752H16.0391H16.0401H16.0412H16.0422H16.0432H16.0442H16.0452H16.0463H16.0473H16.0483H16.0493H16.0503H16.0513H16.0523H16.0533H16.0544H16.0554H16.0564H16.0574H16.0584H16.0594H16.0604H16.0614H16.0624H16.0634H16.0644H16.0654H16.0664H16.0674H16.0684H16.0694H16.0704H16.0714H16.0724H16.0734H16.0743H16.0753H16.0763H16.0773H16.0783H16.0793H16.0803H16.0813H16.0822H16.0832H16.0842H16.0852H16.0862H16.0872H16.0881H16.0891H16.0901H16.0911H16.0921H16.093H16.094H16.095H16.096H16.0969H16.0979H16.0989H16.0998H16.1008H16.1018H16.1028H16.1037H16.1047H16.1057H16.1066H16.1076H16.1085H16.1095H16.1105H16.1114H16.1124H16.1134H16.1143H16.1153H16.1162H16.1172H16.1182H16.1191H16.1201H16.121H16.122H16.1229H16.1239H16.1248H16.1258H16.1268H16.1277H16.1287H16.1296H16.1306H16.1315H16.1325H16.1334H16.1343H16.1353H16.1362H16.1372H16.1381H16.1391H16.14H16.141H16.1419H16.1428H16.1438H16.1447H16.1457H16.1466H16.1475H16.1485H16.1494H16.1504H16.1513H16.1522H16.1532H16.1541H16.155H16.156H16.1569H16.1578H16.1588H16.1597H16.1606H16.1616H16.1625H16.1634H16.1644H16.1653H16.1662H16.1672H16.1681H16.169H16.1699H16.1709H16.1718H16.1727H16.1736H16.1746H16.1755H16.1764H16.1773H16.1783H16.1792H16.1801H16.181H16.182H16.1829H16.1838H16.1847H16.1856H16.1866H16.1875H16.1884H16.1893H16.1902H16.1912H16.1921H16.193H16.1939H16.1948H16.1958H16.1967H16.1976H16.1985H16.1994H16.2003H16.2012H16.2022H16.2031H16.204H16.2049H16.2058H16.2067H16.2076H16.2086H16.2095H16.2104H16.2113H16.2122H16.2131H16.214H16.2149H16.2158H16.2168H16.2177H16.2186H16.2195H16.2204H16.2213H16.2222H16.2231H16.224H16.2249H16.2258H16.2268H16.2277H16.2286H16.2295H16.2304H16.2313H16.2322H16.2331H16.234H16.2349H16.2358H16.2367H16.2376H16.2385H16.2394H16.2403H16.2413H16.2422H16.2431H16.244H16.2449H16.2458H16.2467H16.2476H16.2485H16.2494H16.2503H16.2512H16.2521H16.253H16.2539H16.2548H16.2557H16.2566H16.2575H16.2584H16.2593H16.2602H16.2611H16.262H16.2629H16.2638H16.2647H16.2657H16.2666H16.2675H16.2684H16.2693H16.2702H16.2711H16.272H16.2729H16.2738H16.2747H16.2756H16.2765H16.2774H16.2783H16.2792H16.2801H16.281H16.2819H16.2828H16.2837H16.2846H16.2855H16.2864H16.2873H16.2882H16.2891H16.29H16.2909H16.2918H16.2927H16.2936H16.2945H16.2955H16.2964H16.2973H16.2982H16.2991H16.3H16.3009H16.3018H16.3027H16.3036H16.3045H16.3054H16.3063H16.3072H16.3081H16.309H16.3099H16.3108H16.3117H16.3126H16.3136H16.3145H16.3154H16.3163H16.3172H16.3181H16.319H16.3199H16.3208H16.3217H16.3226H16.3235H16.3244H16.3254H16.3263H16.3272H16.3281H16.329H16.3299H16.3308H16.3317H16.3326H16.3336H16.3345H16.3354H16.3363H16.3372H16.3381H16.339H16.3399H16.3409H16.3418H16.3427H16.3436H16.3445H16.3454H16.3463H16.3473H16.3482H16.3491H16.35H16.3509H16.3518H16.3528H16.3537H16.3546H16.3555H16.3564H16.3574H16.3583H16.3592H16.3601H16.361H16.362H16.3629H16.3638H16.3647H16.3656H16.3666H16.3675H16.3684H16.3693H16.3703H16.3712H16.3721H16.373H16.374H16.3749H16.3758H16.3768H16.3777H16.3786H16.3795H16.3805H16.3814H16.3823H16.3833H16.3842H16.3851H16.3861H16.387H16.3879H16.3889H16.3898H16.3907H16.3917H16.3926H16.3935H16.3945H16.3954H16.3964H16.3973H16.3982H16.3992H16.4001H16.4011H16.402H16.4029H16.4039H16.4048H16.4058H16.4067H16.4077H16.4086H16.4095H16.4105H16.4114H16.4124H16.4133H16.4143H16.4152H16.4162H16.4171H16.4181H16.419H16.42H16.4209H16.4219H16.4229H16.4238H16.4248H16.4257H16.4267H16.4276H16.4286H16.4296H16.4305H16.4315H16.4324H16.4334H16.4344H16.4353H16.4363H16.4373H16.4382H16.4392H16.4401H16.4411H16.4421H16.4431H16.444H16.445H16.446H16.4469H16.4479H16.4489H16.4499H16.4508H16.4518H16.4528H16.4538H16.4547H16.4557H16.4567H16.4577H16.4587H16.4596H16.4606H16.4616H16.4626H16.4636H16.4646H16.4655H16.4665H16.4675H16.4685H16.4695H16.4705H16.4715H16.4725H16.4735H16.4745H16.4755H16.4764H16.4774H16.4784H16.4794H16.4804H16.4814H16.4824H16.4834H16.4844H16.4854H16.4865H16.4875H16.4885H16.4895H16.4905H16.4915H16.4925H16.4935H16.4945H16.4955H16.4965H16.4976H16.4986H16.4996H16.5006H16.5016H16.5026H16.5037H16.5047H16.5057H16.5067H16.5078H16.5088H16.5098H16.5108H16.5119H16.5129H16.5139H16.5149H16.516H16.517H16.518H16.5191H16.5201C18.2042 16.5752 20.1712 16.1435 21.7514 15.6865C22.5424 15.4577 23.2386 15.222 23.7567 15.0295C24.0157 14.9333 24.2308 14.8477 24.3912 14.779C24.5471 14.7122 24.6617 14.6572 24.7107 14.6222L24.7174 14.6174L24.7232 14.6115L24.8554 14.4794L24.8847 14.4501V14.4086V7.19788V7.07321L24.763 7.10026L16.0797 9.03008L6.47117 7.09983L6.35148 7.07579V7.19788V14.4086V14.4501L6.38077 14.4794L6.51295 14.6115ZM16.0408 15.4519L16.0408 15.4515L16.0318 15.4519C14.4842 15.5174 12.604 15.2121 10.9691 14.8337C9.39469 14.4692 8.05652 14.039 7.47493 13.8136V8.42041L16.0609 10.1538L16.0816 10.1579L16.1023 10.1534L23.7612 8.46546V13.8158C23.226 14.0411 22.0072 14.4705 20.5837 14.8342C19.1028 15.2126 17.4109 15.5173 16.0408 15.4519Z" fill="#292D32" stroke="#292D32" stroke-width="0.2"/>
<path d="M27.0626 5.58279L27.0626 5.58314H27.0709C27.1346 5.58314 27.1845 5.55072 27.2192 5.5141C27.2536 5.47791 27.2796 5.43132 27.2994 5.38343C27.3394 5.28712 27.3631 5.16399 27.3691 5.04312C27.3751 4.92262 27.3639 4.79437 27.3264 4.68921C27.2897 4.58647 27.2168 4.47974 27.0852 4.46071L27.0853 4.46054L27.0793 4.46004L16.0891 3.53658L16.0891 3.53623H16.0807C15.9452 3.53623 15.802 3.58948 15.6918 3.68069C15.5805 3.77287 15.4966 3.90964 15.4966 4.07748C15.4966 4.21188 15.5493 4.35465 15.64 4.46461C15.7309 4.5748 15.8657 4.65821 16.0316 4.65967L27.0626 5.58279Z" fill="#292D32" stroke="#292D32" stroke-width="0.2"/>
<path d="M26.5313 11.4633C26.5313 11.7317 26.7467 12.0026 27.0707 12.0026C27.3968 12.0026 27.6101 11.7315 27.6101 11.4633V5.04376C27.6101 4.90139 27.5399 4.76739 27.4435 4.67097C27.3471 4.57455 27.2131 4.50437 27.0707 4.50437C26.8025 4.50437 26.5313 4.71766 26.5313 5.04376V11.4633Z" fill="#292D32" stroke="#292D32" stroke-width="0.2"/>
<path d="M27.6548 14.2251V13.3017C27.6548 12.9915 27.4033 12.74 27.0931 12.74C26.7828 12.74 26.5313 12.9915 26.5313 13.3017V14.2251C26.5313 14.5354 26.7828 14.7869 27.0931 14.7869C27.4033 14.7869 27.6548 14.5354 27.6548 14.2251Z" fill="#292D32" stroke="#292D32" stroke-width="0.2"/>
</svg>
