<svg width="17" height="20" viewBox="0 0 17 20" fill="none" xmlns="http://www.w3.org/2000/svg">
<mask id="mask0_16_1728" style="mask-type:luminance" maskUnits="userSpaceOnUse" x="0" y="0" width="17" height="20">
<path d="M0 0H16.2616V19.7334H0V0Z" fill="white"/>
</mask>
<g mask="url(#mask0_16_1728)">
<path d="M1.47047 1.04328L1.56067 0.893317L1.56022 0.893045C1.40864 0.802496 1.21991 0.803033 1.06866 0.891241L1.06866 0.891237L1.06766 0.891832C0.91614 0.981555 0.825 1.14572 0.825 1.32167V8.88514C0.825 12.3496 2.54839 15.5764 5.39823 17.4381L5.39828 17.4381C6.08456 17.8862 6.719 18.3007 7.18186 18.6032L7.73251 18.9632L7.88327 19.0617L7.92259 19.0874L7.93262 19.094L7.93516 19.0957L7.93579 19.0961L7.93595 19.0962L7.93599 19.0962L8.0316 18.9501L8.03159 18.9501L7.93601 19.0962L7.93629 19.0964C8.09721 19.2012 8.30279 19.2012 8.46371 19.0964L8.46399 19.0962L8.36835 18.95L8.46401 19.0962L8.46405 19.0962L8.46421 19.0961L8.46484 19.0957L8.46738 19.094L8.47741 19.0874L8.51673 19.0617L8.66748 18.9631L9.21805 18.6032C9.68081 18.3007 10.315 17.8861 11.0009 17.4381L10.9113 17.3009L11.0009 17.4381C13.8507 15.5764 15.575 12.3497 15.575 8.88514V8.86437V8.84359V8.82279V8.80199V8.78117V8.76035V8.73952V8.71867V8.69782V8.67696V8.65609V8.63521V8.61432V8.59343V8.57253V8.55161V8.53069V8.50977V8.48883V8.46789V8.44695V8.42599V8.40503V8.38406V8.36309V8.34211V8.32113V8.30014V8.27914V8.25814V8.23714V8.21613V8.19511V8.17409V8.15307V8.13205V8.11102V8.08998V8.06895V8.04791V8.02686V8.00582V7.98477V7.96372V7.94267V7.92162V7.90056V7.8795V7.85845V7.83739V7.81633V7.79527V7.7742V7.75314V7.73208V7.71102V7.68996V7.6689V7.64784V7.62678V7.60573V7.58467V7.56362V7.54256V7.52151V7.50047V7.47942V7.45838V7.43734V7.4163V7.39527V7.37423V7.35321V7.33218V7.31116V7.29015V7.26914V7.24813V7.22713V7.20613V7.18514V7.16416V7.14318V7.1222V7.10123V7.08027V7.05932V7.03837V7.01742V6.99649V6.97556V6.95464V6.93373V6.91282V6.89192V6.87104V6.85015V6.82928V6.80842V6.78757V6.76672V6.74588V6.72506V6.70424V6.68344V6.66264V6.64186V6.62108V6.60032V6.57956V6.55882V6.53809V6.51737V6.49667V6.47597V6.45529V6.43462V6.41396V6.39332V6.37268V6.35207V6.33146V6.31087V6.29029V6.26973V6.24918V6.22864V6.20812V6.18762V6.16713V6.14665V6.12619V6.10575V6.08532V6.06491V6.04451V6.02413V6.00377V5.98343V5.9631V5.94279V5.92249V5.90222V5.88196V5.86172V5.84149V5.82129V5.80111V5.78094V5.76079V5.74066V5.72056V5.70047V5.6804V5.66035V5.64032V5.62031V5.60032V5.58036V5.56041V5.54049V5.52059V5.5007V5.48085V5.46101V5.44119V5.4214V5.40163V5.38188V5.36216V5.34246V5.32278V5.30313V5.2835V5.2639V5.24431V5.22476V5.20523V5.18572V5.16624V5.14678V5.12735V5.10794V5.08857V5.06921V5.04988V5.03058V5.01131V4.99206V4.97284V4.95365V4.93449V4.91535V4.89624V4.87716V4.8581V4.83908V4.82008V4.80112V4.78218V4.76327V4.74439V4.72554V4.70672V4.68793V4.66917V4.65045V4.63175V4.61308V4.59445V4.57584V4.55727V4.53873V4.52022V4.50174V4.4833V4.46488V4.4465V4.42816V4.40984V4.39156V4.37332V4.3551V4.33693V4.31878V4.30067V4.28259V4.26455V4.24655V4.22858V4.21064V4.19274V4.17488V4.15705V4.13925V4.1215V4.10378V4.0861V4.06845V4.05084V4.03327V4.01574V3.99824V3.98078V3.96336V3.94598V3.92864V3.91133V3.89407V3.87684V3.85965V3.84251V3.8254V3.80833V3.7913V3.77432V3.75737V3.74046V3.7236V3.70678V3.68999V3.67325V3.65655V3.6399V3.62328V3.60671V3.59018V3.57369V3.55725V3.54085V3.52449V3.50818V3.49191V3.47568V3.4595V3.44336V3.42727V3.41122V3.39521V3.37926V3.36334V3.34748V3.33166V3.31588V3.30015V3.28447V3.26883V3.25324V3.2377V3.2222V3.20676V3.19136V3.176V3.1607V3.14544V3.13023V3.11507V3.09996V3.0849V3.06989V3.05493V3.04001V3.02515V3.01034V2.99557V2.98086V2.9662V2.95159V2.93703V2.92252V2.90806V2.89365V2.8793V2.865V2.85074V2.83655V2.8224V2.80831V2.79427V2.78028V2.76635V2.75247V2.73865V2.72488V2.71116V2.6975V2.68389V2.67033V2.65684V2.64339V2.63001V2.61667V2.6034V2.59018V2.57701V2.56391V2.55086V2.53786V2.52492V2.51204V2.49922V2.48646V2.47375V2.4611V2.44851V2.43598V2.42351V2.41109V2.39874V2.38644V2.3742V2.36203V2.34991V2.33785V2.32586V2.31392V2.30204V2.29023V2.27847V2.26678V2.25515V2.24358V2.23207V2.22063V2.20924V2.19792V2.18666V2.17547V2.16434V2.15327V2.14226V2.13132V2.12044V2.10963V2.09888V2.08819V2.07757V2.06701V2.05652V2.0461V2.03574V2.02544V2.01522V2.00505V1.99496V1.98493V1.97496V1.96507V1.95524V1.94548V1.93578V1.92616V1.9166V1.90711V1.89769V1.88833V1.87905V1.86983V1.86068V1.85161V1.8426V1.83366V1.82479V1.81599V1.80726V1.79861V1.79002V1.7815V1.77306V1.76468V1.75638V1.74815V1.73999V1.7319V1.72389V1.71595V1.70808V1.70028V1.69256V1.68491V1.67733V1.66983V1.6624V1.65505V1.64777V1.64056V1.63343V1.62637V1.61939V1.61249V1.60566V1.5989V1.59222V1.58562V1.5791V1.57265V1.56627V1.55998V1.55376V1.54762V1.54155V1.53557V1.52966V1.52383V1.51808V1.5124V1.50681V1.50129V1.49586V1.4905V1.48522V1.48002V1.47491V1.46987V1.46491V1.46003V1.45524V1.45052V1.44589V1.44134V1.43686V1.43248V1.42817V1.42394V1.4198V1.41574V1.41176V1.40787V1.40405V1.40033V1.39668V1.39312V1.38964V1.38625V1.38294V1.37972V1.37658V1.37353V1.37056V1.36767V1.36487V1.36216V1.35954V1.357V1.35454V1.35217V1.34989V1.3477V1.34559V1.34358V1.34164V1.3398V1.33804V1.33638V1.3348V1.33331V1.33191V1.33059V1.32937V1.32823V1.32719V1.32624V1.32537V1.3246V1.32391V1.32332V1.32282V1.3224V1.32208V1.32185V1.32172L15.4 1.32167H15.575C15.575 1.14555 15.4837 0.981163 15.3309 0.891494L15.3305 0.891241C15.179 0.802891 14.9914 0.802753 14.8395 0.892702L14.8395 0.892698L14.8385 0.893318L14.8385 0.893322L14.8385 0.893336L14.8384 0.893392L14.838 0.893623L14.8364 0.894546L14.8303 0.898212L14.8064 0.912575L14.715 0.967466C14.6358 1.01494 14.5218 1.08318 14.3828 1.1662L14.3826 1.16635C12.5371 2.2726 10.2333 2.17505 8.48217 0.915984L8.43639 0.88307H8.42875C8.28584 0.805796 8.11387 0.805491 7.971 0.88307H7.96361L7.91783 0.915984C6.1667 2.17505 3.86285 2.27262 2.01656 1.16633L2.01634 1.1662C1.87732 1.08318 1.76338 1.01494 1.6842 0.967466L1.59272 0.912575L1.56881 0.898212L1.56272 0.894546L1.56118 0.893623L1.5608 0.893392L1.5607 0.893335L1.56068 0.893322L1.56067 0.893318L1.47047 1.04328ZM14.5985 2.18054V8.88514C14.5985 12.0141 13.0413 14.9249 10.474 16.6031C10.4739 16.6031 10.4739 16.6031 10.4739 16.6031L8.1996 18.0883L5.92608 16.6031C5.92607 16.6031 5.92607 16.6031 5.92606 16.6031C3.35788 14.925 1.80145 12.0141 1.80145 8.88514V2.18054C3.82865 3.26097 6.26422 3.16062 8.1996 1.91797C10.1357 3.16061 12.5713 3.26098 14.5985 2.18054ZM6.45971 4.8572V7.57484H3.81778C3.54406 7.57484 3.32913 7.80187 3.32913 8.07172V10.6425C3.32913 10.9123 3.54406 11.1394 3.81778 11.1394H6.45971V13.857C6.45971 14.1262 6.6732 14.3539 6.94751 14.3539H9.45164C9.72535 14.3539 9.94029 14.1268 9.94029 13.857V11.1394H12.5822C12.8559 11.1394 13.0709 10.9123 13.0709 10.6425V8.07172C13.0709 7.80187 12.8559 7.57484 12.5822 7.57484H9.94029V4.8572C9.94029 4.58736 9.72535 4.36032 9.45164 4.36032H6.94751C6.6732 4.36032 6.45971 4.58798 6.45971 4.8572ZM7.43616 8.07172V5.35322H8.96384V8.07172C8.96384 8.34189 9.17908 8.56774 9.45164 8.56774H12.0944V10.1465H9.45164C9.17908 10.1465 8.96384 10.3723 8.96384 10.6425V13.361H7.43616V10.6425C7.43616 10.372 7.22062 10.1465 6.94751 10.1465H4.30558V8.56774H6.94751C7.22062 8.56774 7.43616 8.3422 7.43616 8.07172Z" fill="#292D32" stroke="#292D32" stroke-width="0.35"/>
</g>
</svg>
