<svg width="24" height="24" viewBox="0 0 24 24" fill="none" xmlns="http://www.w3.org/2000/svg">
<path d="M10.7494 4.04871C11.1343 3.38204 12.0965 3.38204 12.4814 4.04871L18.6014 14.6488C18.9863 15.3154 18.5052 16.1488 17.7354 16.1488H5.49547C4.72567 16.1488 4.24454 15.3154 4.62944 14.6488L10.7494 4.04871Z" stroke="#292D32"/>
<path d="M10.7494 19.1821C11.1343 19.8488 12.0965 19.8488 12.4814 19.1821L18.6014 8.58207C18.9863 7.9154 18.5052 7.08207 17.7354 7.08207H5.49547C4.72567 7.08207 4.24454 7.9154 4.62944 8.58207L10.7494 19.1821Z" stroke="#292D32"/>
<rect x="8.76051" y="11.4903" width="3.86064" height="3.86064" rx="1" transform="rotate(-45 8.76051 11.4903)" stroke="#292D32"/>
<circle cx="11.5" cy="11.5" r="0.5" stroke="#292D32"/>
<circle cx="11.6155" cy="11.6155" r="9.25696" stroke="#292D32"/>
<circle cx="11.6154" cy="11.6154" r="11.1154" stroke="#292D32"/>
</svg>
