<svg width="27" height="20" viewBox="0 0 27 20" fill="none" xmlns="http://www.w3.org/2000/svg">
<mask id="mask0_16_1713" style="mask-type:luminance" maskUnits="userSpaceOnUse" x="0" y="0" width="27" height="20">
<path d="M0 0H26.4604V19.3591H0V0Z" fill="white"/>
</mask>
<g mask="url(#mask0_16_1713)">
<path d="M13.7375 0.875L13.7376 0.875C14.3608 0.875 14.8791 1.37785 14.8761 1.99239L14.8761 1.99248L14.868 3.41138L14.868 3.4116C14.8637 3.99551 14.3899 4.47838 13.8086 4.52393L13.5145 6.54487L25.5287 6.40118C25.5289 6.40118 25.5292 6.40117 25.5294 6.40117C25.6807 6.39797 25.8265 6.45557 25.9346 6.55868C26.0433 6.66239 26.1058 6.80547 26.1075 6.95447L26.125 8.4527L26.125 8.45346C26.1267 8.76375 25.8733 9.01476 25.5598 9.01817L25.5599 9.01817L25.5584 8.89318L25.5597 9.01818L13.7375 0.875ZM13.7375 0.875L8.29972 0.877645C8.2997 0.877645 8.29968 0.877645 8.29966 0.877645C7.678 0.877677 7.15506 1.3813 7.15051 1.99481L7.1505 1.99503M13.7375 0.875L7.1505 1.99503M7.1505 1.99503L7.14245 3.4126L7.14245 3.41269M7.1505 1.99503L7.14245 3.41269M7.14245 3.41269C7.1395 4.00825 7.62618 4.49891 8.22348 4.52866L8.7356 7.78748L8.19932 11.1295L7.14245 3.41269ZM7.14111 13.1836L7.14111 13.1834L7.14513 12.5622C7.14513 12.5622 7.14514 12.5621 7.14514 12.562L7.14514 12.5619L7.27013 12.5627C7.27282 11.932 7.7158 11.3938 8.31046 11.2258L7.14111 13.1836ZM7.14111 13.1836C7.1367 14.019 7.8362 14.6991 8.68497 14.6991H8.68505M7.14111 13.1836L8.68505 14.6991M8.68505 14.6991L13.3054 14.6964L8.68505 14.6991ZM14.8694 12.5593L14.8694 12.5596L14.8653 13.1809L14.8653 13.1811L14.7403 13.1803C14.7363 13.9433 14.0893 14.5714 13.3054 14.5714L14.8694 12.5593ZM14.8694 12.5593C14.8722 11.8902 14.423 11.3197 13.8085 11.1196L14.8694 12.5593ZM8.16951 1.99442L8.16146 3.41331C8.16011 3.48869 8.20844 3.53497 8.28495 3.53497M8.16951 1.99442L8.28495 3.53497M8.16951 1.99442C8.16951 1.91904 8.21783 1.87276 8.29435 1.87276L8.16951 1.99442ZM8.28495 3.53497V3.41739M8.28495 3.53497L8.2849 3.41731M8.28495 3.41739C8.28578 3.4187 8.28633 3.41985 8.28663 3.42067C8.2868 3.42113 8.28684 3.42132 8.28681 3.42119C8.28674 3.42091 8.28637 3.41916 8.28645 3.41554L8.28645 3.41402L8.28648 3.40997L8.28495 3.40997V3.41401V3.41551V3.41739ZM8.28495 3.41739C8.28493 3.41737 8.28492 3.41734 8.2849 3.41731M8.2849 3.41731L8.2849 3.41551L8.2849 3.41401L8.2849 3.40997C8.2783 3.40997 8.27557 3.40896 8.27566 3.409C8.27596 3.4091 8.27843 3.41013 8.28138 3.41301C8.28172 3.41334 8.28203 3.41367 8.28234 3.414C8.2828 3.4145 8.28322 3.415 8.2836 3.41549C8.28409 3.41611 8.28452 3.41673 8.2849 3.41731ZM8.29449 1.99776L13.732 1.99512L13.7254 3.40731C13.725 3.40732 13.7246 3.40732 13.7242 3.40732L13.7238 3.40733L13.3376 3.40861C13.3255 3.40721 13.3161 3.40729 13.3129 3.40732L13.3121 3.40732H13.312L11.1723 3.40865L11.1723 3.40865L8.29449 1.99776ZM8.29449 1.99776L8.29451 1.99513V1.99442C8.29451 1.99016 8.29503 1.98822 8.29508 1.98805C8.2951 1.988 8.29507 1.9881 8.29498 1.98835C8.29485 1.98868 8.29466 1.9891 8.29441 1.98959C8.29439 1.98963 8.29437 1.98966 8.29435 1.9897C8.29368 1.99097 8.29256 1.99267 8.29089 1.99442C8.29069 1.99463 8.29048 1.99484 8.29026 1.99505C8.29024 1.99507 8.29023 1.99509 8.29021 1.9951C8.28748 1.99773 8.28522 1.99867 8.28499 1.99875C8.28496 1.99876 8.28774 1.99776 8.29435 1.99776H8.29441L8.29449 1.99776ZM20.8672 11.7739L20.8687 11.7739C21.1327 11.7722 21.3676 11.95 21.4286 12.2068C21.4913 12.4634 21.3598 12.7264 21.1209 12.8394C21.1206 12.8395 21.1204 12.8397 21.1201 12.8398L17.4283 14.6384C17.4282 14.6385 17.428 14.6385 17.4278 14.6386C17.2451 14.7293 17.0281 14.7175 16.8569 14.6079C16.6856 14.4982 16.5858 14.306 16.5996 14.1045C16.5996 14.1043 16.5996 14.1041 16.5996 14.1039L16.7243 14.1125C16.7337 13.9565 16.829 13.8177 16.9727 13.7489L20.8672 11.7739ZM20.8672 11.7739C20.779 11.7756 20.6922 11.7953 20.6115 11.8358C20.6112 11.8359 20.6109 11.836 20.6106 11.8362L16.9187 13.6362C16.9185 13.6362 16.9183 13.6363 16.9182 13.6364L20.8672 11.7739ZM13.7227 13.1797L13.7227 13.1795L13.7267 12.5582C13.7267 12.5581 13.7267 12.558 13.7267 12.558M13.7227 13.1797L13.3201 12.0391C13.6235 12.0391 13.853 12.2626 13.8517 12.5588L13.7267 12.558M13.7227 13.1797C13.7217 13.404 13.5484 13.5763 13.3107 13.5763L13.3107 13.5763M13.7227 13.1797L13.3107 13.5763M13.7267 12.558C13.7276 12.3345 13.5576 12.1641 13.3202 12.1641M13.7267 12.558L13.3202 12.1641M13.3202 12.1641C13.3202 12.1641 13.3201 12.1641 13.3201 12.1641L11.1644 12.1654M13.3202 12.1641L11.1644 12.1654M13.3107 13.5763L8.69034 13.5789C8.69032 13.5789 8.6903 13.5789 8.69028 13.5789C8.45303 13.5789 8.28276 13.4073 8.28377 13.1848L8.2878 12.5622L8.2878 12.562M13.3107 13.5763L8.2878 12.562M8.2878 12.562C8.28881 12.3424 8.45633 12.1725 8.68781 12.1667H8.68783H8.68786H8.68789H8.68792H8.68795H8.68798H8.68801H8.68805H8.68808H8.68811H8.68814H8.68817H8.6882H8.68824H8.68827H8.6883H8.68833H8.68836H8.68839H8.68842H8.68846H8.68849H8.68852H8.68855H8.68858H8.68861H8.68864H8.68868H8.68871H8.68874H8.68877H8.6888H8.68883H8.68886H8.6889H8.68893H8.68896H8.68899H8.68902H8.68905H8.68909H8.68912H8.68915H8.68918H8.68921H8.68924H8.68927H8.68931H8.68934H8.68937H8.6894H8.68943H8.68946H8.68949H8.68953H8.68956H8.68959H8.68962H8.68965H8.68968H8.68971H8.68975H8.68978H8.68981H8.68984H8.68987H8.6899H8.68993H8.68997H8.69H8.69003H8.69006H8.69009H8.69012H8.69015H8.69019H8.69022H8.69025H8.69028H8.69031H8.69034H8.69037H8.69041H8.69044H8.69047H8.6905H8.69053H8.69056H8.6906H8.69063H8.69066H8.69069H8.69072H8.69075H8.69078H8.69082H8.69085H8.69088H8.69091H8.69094H8.69097H8.691H8.69104H8.69107H8.6911H8.69113H8.69116H8.69119H8.69122H8.69126H8.69129H8.69132H8.69135H8.69138H8.69141H8.69144H8.69148H8.69151H8.69154H8.69157H8.6916H8.69163H8.69166H8.6917H8.69173H8.69176H8.69179H8.69182H8.69185H8.69188H8.69192H8.69195H8.69198H8.69201H8.69204H8.69207H8.69211H8.69214H8.69217H8.6922H8.69223H8.69226H8.69229H8.69233H8.69236H8.69239H8.69242H8.69245H8.69248H8.69251H8.69255H8.69258H8.69261H8.69264H8.69267H8.6927H8.69273H8.69277H8.6928H8.69283H8.69286H8.69289H8.69292H8.69295H8.69299H8.69302H8.69305H8.69308H8.69311H8.69314H8.69317H8.69321H8.69324H8.69327H8.6933H8.69333H8.69336H8.6934H8.69343H8.69346H8.69349H8.69352H8.69355H8.69358H8.69362H8.69365H8.69368H8.69371H8.69374H8.69377H8.6938H8.69384H8.69387H8.6939H8.69393H8.69396H8.69399H8.69402H8.69406H8.69409H8.69412H8.69415H8.69418H8.69421H8.69424H8.69428H8.69431H8.69434H8.69437H8.6944H8.69443H8.69446H8.6945H8.69453H8.69456H8.69459H8.69462H8.69465H8.69468H8.69472H8.69475H8.69478H8.69481H8.69484H8.69487H8.69491H8.69494H8.69497H8.695H8.69503H8.69506H8.69509H8.69513H8.69516H8.69519H8.69522H8.69525H8.69528H8.69531H8.69535H8.69538H8.69541H8.69544H8.69547H8.6955H8.69553H8.69557H8.6956H8.69563H8.69566H8.69569H8.69572H8.69575H8.69579H8.69582H8.69585H8.69588H8.69591H8.69594H8.69597H8.69601H8.69604H8.69607H8.6961H8.69613H8.69616H8.6962H8.69623H8.69626H8.69629H8.69632H8.69635H8.69638H8.69642H8.69645H8.69648H8.69651H8.69654H8.69657H8.6966H8.69664H8.69667H8.6967H8.69673H8.69676H8.69679H8.69682H8.69686H8.69689H8.69692H8.69695H8.69698H8.69701H8.69704H8.69708H8.69711H8.69714H8.69717H8.6972H8.69723H8.69726H8.6973H8.69733H8.69736H8.69739H8.69742H8.69745H8.69748H8.69752H8.69755H8.69758H8.69761H8.69764H8.69767H8.69771H8.69774H8.69777H8.6978H8.69783H8.69786H8.69789H8.69793H8.69796H8.69799H8.69802H8.69805H8.69808H8.69811H8.69815H8.69818H8.69821H8.69824H8.69827H8.6983H8.69833H8.69837H8.6984H8.69843H8.69846H8.69849H8.69852H8.69855H8.69859H8.69862H8.69865H8.69868H8.69871H8.69874H8.69877H8.69881H8.69884H8.69887H8.6989H8.69893H8.69896H8.699H8.69903H8.69906H8.69909H8.69912H8.69915H8.69918H8.69922H8.69925H8.69928H8.69931H8.69934H8.69937H8.6994H8.69944H8.69947H8.6995H8.69953H8.69956H8.69959H8.69962H8.69966H8.69969H8.69972H8.69975H8.69978H8.69981H8.69984H8.69988H8.69991H8.69994H8.69997H8.7H8.70003H8.70007H8.7001H8.70013H8.70016H8.70019H8.70022H8.70025H8.70028H8.70032H8.70035H8.70038H8.70041H8.70044H8.70047H8.70051H8.70054H8.70057H8.7006H8.70063H8.70066H8.70069H8.70073H8.70076H8.70079H8.70082H8.70085H8.70088H8.70091H8.70095H8.70098H8.70101H8.70104H8.70107H8.7011H8.70113H8.70117H8.7012H8.70123H8.70126H8.70129H8.70132H8.70135H8.70139H8.70142H8.70145H8.70148H8.70151H8.70154H8.70158H8.70161H8.70164H8.70167H8.7017H8.70173H8.70176H8.7018H8.70183H8.70186H8.70189H8.70192H8.70195H8.70198H8.70202H8.70205H8.70208H8.70211H8.70214H8.70217H8.7022H8.70224H8.70227H8.7023H8.70233H8.70236H8.70239H8.70242H8.7025M8.2878 12.562L8.7025 12.1667M8.7025 12.1667L11.0019 12.1654H11.0019H11.1643H11.1644M8.7025 12.1667L11.1644 12.1654M13.531 9.16324L13.5133 9.03844L13.3872 9.03996L13.4049 9.16476L13.531 9.16324ZM13.4963 6.6701L13.3698 6.67161L13.388 6.54639L13.4963 6.6701ZM10.9213 11.0453H10.9212L9.36992 11.0465L9.87809 7.87727C9.88839 7.81896 9.88854 7.75988 9.87808 7.702L9.38013 4.52998L11.014 4.52876H11.0141H12.6535L12.1925 7.70494C12.1838 7.75732 12.1838 7.81122 12.1925 7.86361L12.6433 11.0441L11.0005 11.0453H11.0004H10.9213ZM1.45152 11.7739L1.4505 11.774C1.19065 11.7806 0.962179 11.9598 0.906163 12.2143C0.848744 12.4704 0.98027 12.7266 1.21553 12.8393C1.21565 12.8394 1.21576 12.8394 1.21588 12.8395L4.90925 14.6382C4.90949 14.6383 4.90973 14.6384 4.90998 14.6385C5.09175 14.7294 5.30878 14.7174 5.47972 14.6079C5.65103 14.4982 5.75085 14.306 5.73707 14.1045C5.72466 13.902 5.60128 13.7241 5.41846 13.6364C5.4183 13.6363 5.41813 13.6362 5.41797 13.6362L1.72507 11.8357C1.72498 11.8357 1.7249 11.8356 1.72482 11.8356C1.64056 11.7941 1.54719 11.7722 1.45152 11.7739ZM13.352 7.66806L24.9716 7.52675L24.9756 7.90619L13.3722 8.04618L13.3403 7.81891L13.3392 7.756L13.352 7.66806ZM2.34638 15.3787C1.54231 15.3787 0.875 16.0225 0.875 16.8141V17.6895C0.875 18.4797 1.54222 19.125 2.34638 19.125H19.652C20.4549 19.125 21.122 18.4797 21.122 17.6895V16.8141C21.122 16.0226 20.4548 15.3787 19.652 15.3787H2.34638ZM2.34638 16.4988H19.652C19.8451 16.4988 19.9794 16.6349 19.9794 16.8141V17.6895C19.9794 17.8688 19.8451 18.0049 19.652 18.0049H2.34638C2.15283 18.0049 2.01767 17.8683 2.01767 17.6895V16.8141C2.01767 16.6354 2.15283 16.4988 2.34638 16.4988Z" fill="#292D32" stroke="#292D32" stroke-width="0.25"/>
</g>
</svg>
