<svg width="24" height="23" viewBox="0 0 24 23" fill="none" xmlns="http://www.w3.org/2000/svg">
<mask id="mask0_1_168" style="mask-type:luminance" maskUnits="userSpaceOnUse" x="0" y="0" width="24" height="23">
<path d="M0 0H23.2309V22.2792H0V0Z" fill="white"/>
</mask>
<g mask="url(#mask0_1_168)">
<path d="M11.6631 2.88598C8.97658 -0.845329 4.48825 -0.592197 2.15514 1.63704C-0.281858 3.96657 -0.432305 8.62445 2.00469 13.2823C3.62856 16.5981 7.77778 19.945 11.256 22.1611C11.5043 22.3199 11.8219 22.3199 12.0715 22.1611C15.5509 19.9426 19.7037 16.5933 21.3287 13.2668C23.7586 8.61848 23.6081 3.96538 21.1711 1.63704C18.8392 -0.592197 14.3497 -0.845329 11.6631 2.88598ZM10.9885 4.69731C11.121 4.94806 11.3801 5.10686 11.6631 5.10686C11.9461 5.10686 12.2064 4.94806 12.3377 4.69731C14.2888 0.967193 18.1705 0.883612 20.1228 2.74867C20.9001 3.49255 21.3526 4.5397 21.5078 5.75999C21.761 7.74087 21.2368 10.154 19.9735 12.5695C19.9705 12.5732 19.9685 12.5774 19.9665 12.5815C19.9653 12.584 19.9641 12.5864 19.9628 12.5886C18.5061 15.5725 14.8344 18.5348 11.6631 20.6029C8.493 18.5336 4.82019 15.5725 3.36349 12.5886C3.3611 12.5826 3.35752 12.5755 3.35393 12.5695C2.09066 10.154 1.56649 7.74087 1.81842 5.75999C1.97365 4.5409 2.42618 3.49255 3.20468 2.74867C5.15571 0.883612 9.03867 0.967193 10.9885 4.69731ZM16.9968 4.64716C18.2589 4.64716 19.2834 5.67641 19.2834 6.94685C19.2834 7.36953 19.6249 7.71341 20.0451 7.71341C20.4654 7.71341 20.8069 7.36953 20.8069 6.94685C20.8069 4.83104 19.1007 3.11285 16.9968 3.11285C16.5765 3.11285 16.235 3.45673 16.235 3.87941C16.235 4.30329 16.5765 4.64716 16.9968 4.64716Z" fill="#292D32"/>
<path d="M11.6631 2.88598C8.97658 -0.845329 4.48825 -0.592197 2.15514 1.63704C-0.281858 3.96657 -0.432305 8.62445 2.00469 13.2823C3.62856 16.5981 7.77778 19.945 11.256 22.1611C11.5043 22.3199 11.8219 22.3199 12.0715 22.1611C15.5509 19.9426 19.7037 16.5933 21.3287 13.2668C23.7586 8.61848 23.6081 3.96538 21.1711 1.63704C18.8392 -0.592197 14.3497 -0.845329 11.6631 2.88598ZM10.9885 4.69731C11.121 4.94806 11.3801 5.10686 11.6631 5.10686C11.9461 5.10686 12.2064 4.94806 12.3377 4.69731C14.2888 0.967193 18.1705 0.883612 20.1228 2.74867C20.9001 3.49255 21.3526 4.5397 21.5078 5.75999C21.761 7.74087 21.2368 10.154 19.9735 12.5695C19.9705 12.5732 19.9685 12.5774 19.9665 12.5815C19.9653 12.584 19.9641 12.5864 19.9628 12.5886C18.5061 15.5725 14.8344 18.5348 11.6631 20.6029C8.493 18.5336 4.82019 15.5725 3.36349 12.5886C3.3611 12.5826 3.35752 12.5755 3.35393 12.5695C2.09066 10.154 1.56649 7.74087 1.81842 5.75999C1.97365 4.5409 2.42618 3.49255 3.20468 2.74867C5.15571 0.883612 9.03867 0.967193 10.9885 4.69731ZM16.9968 4.64716C18.2589 4.64716 19.2834 5.67641 19.2834 6.94685C19.2834 7.36953 19.6249 7.71341 20.0451 7.71341C20.4654 7.71341 20.8069 7.36953 20.8069 6.94685C20.8069 4.83104 19.1007 3.11285 16.9968 3.11285C16.5765 3.11285 16.235 3.45673 16.235 3.87941C16.235 4.30329 16.5765 4.64716 16.9968 4.64716Z" stroke="#292D32"/>
</g>
</svg>
