<svg width="33" height="25" viewBox="0 0 33 25" fill="none" xmlns="http://www.w3.org/2000/svg">
<path d="M18.9403 1.55067C18.3914 0.8053 16.6816 0.723142 16.241 1.89001C15.7993 0.723142 14.0894 0.8053 13.5405 1.55067C12.8999 2.42106 13.0726 3.54626 13.7834 4.39998C14.4967 5.2549 16.241 6.60632 16.241 6.60632C16.241 6.60632 17.9866 5.2549 18.6974 4.39998C19.4106 3.54626 19.5821 2.42106 18.9403 1.55067Z" stroke="#292D32" stroke-miterlimit="10" stroke-linecap="round" stroke-linejoin="round"/>
<mask id="mask0_1_175" style="mask-type:luminance" maskUnits="userSpaceOnUse" x="13" y="5" width="20" height="20">
<path d="M13.7334 5.71094H32.1807V24.2309H13.7334V5.71094Z" fill="white"/>
</mask>
<g mask="url(#mask0_1_175)">
<path d="M22.9875 6.20507C20.4382 6.20507 18.1426 7.27311 16.5209 8.98413C16.9281 9.41397 17.2948 9.8831 17.6092 10.3879C18.9189 8.89483 20.8431 7.9518 22.9875 7.9518C26.9334 7.9518 30.1316 11.1381 30.1316 15.0697C30.1316 19.0026 26.9334 22.1888 22.9875 22.1888C19.0416 22.1888 15.8446 19.0026 15.8446 15.0697C15.8446 13.9886 16.0875 12.9646 16.5209 12.0466C16.2351 11.4417 15.8684 10.8845 15.4326 10.3879C14.5825 11.7465 14.0907 13.3504 14.0907 15.0697C14.0907 19.967 18.0735 23.9368 22.9875 23.9368C27.9015 23.9368 31.8855 19.967 31.8855 15.0697C31.8855 10.1736 27.9015 6.20507 22.9875 6.20507Z" stroke="#292D32" stroke-miterlimit="10" stroke-linecap="round" stroke-linejoin="round"/>
</g>
<mask id="mask1_1_175" style="mask-type:luminance" maskUnits="userSpaceOnUse" x="0" y="5" width="20" height="20">
<path d="M0.862061 5.71094H19.5249V24.2309H0.862061V5.71094Z" fill="white"/>
</mask>
<g mask="url(#mask1_1_175)">
<path d="M15.4349 19.7515C14.1251 21.2446 12.201 22.1888 10.0554 22.1888C6.10944 22.1888 2.91126 19.0026 2.91126 15.0697C2.91126 11.1381 6.10944 7.9518 10.0554 7.9518C14.0013 7.9518 17.1983 11.1381 17.1983 15.0697C17.1983 16.1521 16.9554 17.1772 16.522 18.0965C16.8066 18.7001 17.1745 19.2574 17.6091 19.7539C18.4592 18.3953 18.9522 16.7903 18.9522 15.0697C18.9522 10.1736 14.9693 6.20507 10.0554 6.20507C5.14141 6.20507 1.15738 10.1736 1.15738 15.0697C1.15738 19.967 5.14141 23.9368 10.0554 23.9368C12.6034 23.9368 14.8991 22.8687 16.5208 21.1577C16.1136 20.7279 15.7504 20.2564 15.4349 19.7515Z" stroke="#292D32" stroke-miterlimit="10" stroke-linecap="round" stroke-linejoin="round"/>
</g>
</svg>
