<svg width="14" height="14" viewBox="0 0 14 14" fill="none" xmlns="http://www.w3.org/2000/svg">
<path d="M8.04091 12.6051L8.041 12.6051C8.73235 12.8974 9.40318 13.05 10.0419 13.05C10.4892 13.05 10.9141 12.9651 11.3052 12.8064C11.7149 12.6414 12.067 12.3855 12.3895 12.029C12.5771 11.8243 12.7251 11.6024 12.8444 11.3467C12.9645 11.0893 13.0277 10.8142 13.0277 10.5386C13.0277 10.3362 12.9871 10.1346 12.9014 9.91746L12.9014 9.91745L12.901 9.91641C12.8076 9.69476 12.6504 9.50891 12.4369 9.36449C12.4367 9.36438 12.4365 9.36426 12.4364 9.36415L10.5843 8.04762L10.584 8.04741C10.4137 7.92819 10.2544 7.84276 10.106 7.78L10.1056 7.77985C9.70193 7.6126 9.2949 7.64594 8.97348 7.84391C8.80637 7.93063 8.63546 8.06222 8.4606 8.23706C8.46055 8.23711 8.46051 8.23716 8.46046 8.2372L8.10145 8.59129C7.9812 8.52791 7.78345 8.39693 7.4843 8.14501L7.48394 8.14471C7.22898 7.93409 6.95682 7.67866 6.62797 7.35539C6.37234 7.09419 6.11646 6.81052 5.84343 6.49849C5.58916 6.19998 5.45728 6.00202 5.392 5.88802C5.39125 5.88651 5.39052 5.88505 5.38981 5.88361L5.74614 5.51157C5.89461 5.36817 6.02294 5.2053 6.12764 5.0274C6.24891 4.82521 6.31326 4.60996 6.31326 4.38791C6.31326 4.21826 6.27238 4.04432 6.19785 3.87208C6.13461 3.71134 6.04315 3.55168 5.92434 3.38759C5.9243 3.38753 5.92426 3.38748 5.92422 3.38742L4.63003 1.56329C4.49063 1.35443 4.29923 1.19813 4.07414 1.09421C3.87768 1.00179 3.64721 0.95 3.42233 0.95C2.88309 0.95 2.37988 1.16833 1.94211 1.60021C1.59675 1.92306 1.34139 2.29739 1.18232 2.70073L1.18228 2.70085C1.02925 3.09191 0.95 3.51112 0.95 3.95256C0.95 4.59095 1.09688 5.26729 1.38924 5.96445L1.38929 5.96457C1.66447 6.61602 2.05156 7.28901 2.53331 7.96122L2.53362 7.96165C3.00949 8.61107 3.54691 9.24365 4.14029 9.84263L4.14079 9.84313C4.73968 10.4308 5.37219 10.9682 6.02713 11.4496L6.02752 11.4499C6.68864 11.9261 7.36721 12.3188 8.04091 12.6051ZM2.59135 2.2756L2.59136 2.27561L2.5922 2.27479C2.85899 2.01344 3.13172 1.88721 3.42233 1.88721C3.50923 1.88721 3.59714 1.90764 3.68089 1.94421C3.75561 1.97881 3.8198 2.03264 3.86688 2.10021L3.86709 2.1005L5.16197 3.9312L5.16196 3.9312L5.16254 3.93199C5.23926 4.03611 5.29833 4.13314 5.33542 4.21779C5.36206 4.28185 5.37605 4.34162 5.37605 4.37674C5.37605 4.4216 5.36285 4.47404 5.32207 4.54031L5.32206 4.5403L5.32155 4.54116C5.2684 4.63152 5.18758 4.73426 5.07813 4.84371L5.07745 4.84441L4.65918 5.27942C4.51023 5.42854 4.43279 5.61985 4.43279 5.83349C4.43279 5.91766 4.44506 5.99485 4.47906 6.12518L4.47868 6.12528L4.48102 6.13113L4.54799 6.29857L4.54769 6.29869L4.5504 6.3037C4.67001 6.52585 4.86233 6.79125 5.12571 7.09946L5.12589 7.09967C5.41124 7.42978 5.68543 7.72636 5.95964 8.00616L5.96028 8.0068C6.31251 8.35344 6.60362 8.62218 6.87264 8.85197L6.87275 8.85207C7.17017 9.10459 7.44104 9.29671 7.67403 9.42173L7.67397 9.42185L7.67737 9.42337L7.82807 9.49034L7.82802 9.49044L7.83104 9.49155C8.10428 9.59253 8.4599 9.53972 8.69257 9.31302L8.69279 9.3128L9.11698 8.89419L9.11722 8.89396C9.22741 8.78376 9.32341 8.70443 9.42794 8.65216L9.42803 8.65234L9.43186 8.64998C9.5232 8.59356 9.57208 8.5832 9.60805 8.58612C9.62681 8.58764 9.64528 8.59301 9.66806 8.60209C9.67955 8.60667 9.6915 8.61192 9.70514 8.61794L9.70615 8.61838C9.71929 8.62418 9.73377 8.63056 9.74944 8.63698L9.76836 8.59073L9.74933 8.63693C9.84014 8.67432 9.93735 8.72816 10.0466 8.8046C10.0466 8.80463 10.0466 8.80466 10.0467 8.80468L11.8994 10.1217L11.8993 10.1218L11.9024 10.1237C11.9607 10.159 12.0081 10.2096 12.0396 10.27C12.0809 10.3635 12.096 10.4455 12.096 10.5274C12.096 10.6647 12.0644 10.8025 12.0005 10.9356L12.0003 10.936C11.9187 11.1102 11.821 11.2566 11.6962 11.3922L11.6957 11.3928C11.4716 11.6442 11.2265 11.8182 10.9493 11.9324L10.9491 11.9325C10.2296 12.2323 9.35157 12.1419 8.40382 11.7373L8.40348 11.7371C7.79363 11.4821 7.1775 11.127 6.57743 10.688L6.57738 10.688C5.95995 10.2374 5.35913 9.72563 4.80278 9.17486C4.24645 8.61295 3.74026 8.01773 3.29532 7.40594C2.85075 6.79465 2.5011 6.18398 2.25161 5.59628C2.00818 5.02089 1.88721 4.46381 1.88721 3.95256C1.88721 3.62908 1.942 3.32853 2.05659 3.04477L2.0566 3.04477L2.05678 3.0443C2.16548 2.76712 2.33962 2.51091 2.59135 2.2756ZM9.63699 4.38301L9.63701 4.38303C9.80136 4.55834 9.93273 4.74864 10.0228 4.91916C10.1138 5.09164 10.1593 5.23763 10.1593 5.32558C10.1593 5.58203 10.3715 5.79419 10.6279 5.79419C10.8844 5.79419 11.0965 5.58203 11.0965 5.32558C11.0965 4.86109 10.7858 4.24104 10.3184 3.73985L10.3183 3.73977C9.8155 3.20302 9.23387 2.90349 8.67442 2.90349C8.41797 2.90349 8.20581 3.11564 8.20581 3.37209C8.20581 3.62854 8.41797 3.8407 8.67442 3.8407C8.96101 3.8407 9.31146 4.03541 9.63699 4.38301ZM12.1128 5.32558C12.1128 5.58203 12.3249 5.79419 12.5814 5.79419C12.8378 5.79419 13.05 5.58203 13.05 5.32558C13.05 2.91471 11.0853 0.95 8.67442 0.95C8.41797 0.95 8.20581 1.16215 8.20581 1.4186C8.20581 1.67506 8.41797 1.88721 8.67442 1.88721C10.5724 1.88721 12.1128 3.42761 12.1128 5.32558Z" fill="#808385" stroke="#808385" stroke-width="0.1"/>
</svg>
