<svg width="10" height="10" viewBox="0 0 10 10" fill="none" xmlns="http://www.w3.org/2000/svg">
<path d="M10 5C10 7.76139 7.76139 10 5 10C2.23861 10 0 7.76139 0 5C0 2.23861 2.23861 0 5 0C7.76139 0 10 2.23861 10 5Z" fill="#FFCC4D"/>
<path d="M5.00005 6.06921C4.17616 6.06921 3.62922 5.9731 2.95311 5.84171C2.79839 5.81227 2.49811 5.84171 2.49811 6.29671C2.49811 7.20643 3.54339 8.34365 5.00005 8.34365C6.45672 8.34365 7.502 7.20643 7.502 6.29671C7.502 5.84171 7.20144 5.81199 7.047 5.84171C6.37089 5.9731 5.82422 6.06921 5.00005 6.06921Z" fill="#664500"/>
<path d="M4.62498 0.911334C4.53379 0.652245 4.36265 0.428824 4.13625 0.273306C3.90985 0.117787 3.6399 0.0382121 3.36534 0.0460619C3.09079 0.0539116 2.82582 0.14878 2.60868 0.31698C2.39153 0.48518 2.23344 0.718014 2.1572 0.981889C1.98846 0.863695 1.79398 0.787427 1.58988 0.759409C1.38578 0.73139 1.17794 0.752428 0.98359 0.820778C0.659319 0.935316 0.393799 1.17393 0.245399 1.48417C0.096999 1.79441 0.0778642 2.15088 0.192201 2.47522C0.22609 2.57078 0.27109 2.65939 0.323312 2.74133C0.865257 3.73633 2.43109 4.43578 3.37915 4.44439C4.11165 3.84244 4.89192 2.31522 4.6897 1.20078C4.67916 1.10216 4.65745 1.00505 4.62498 0.911334ZM5.37498 0.911334C5.48946 0.587012 5.72805 0.321428 6.0383 0.172973C6.34854 0.0245175 6.70505 0.0053439 7.02942 0.119667C7.2238 0.188392 7.39899 0.302455 7.54048 0.452401C7.68198 0.602348 7.78569 0.783859 7.84303 0.981889C8.01177 0.863695 8.20626 0.787427 8.41036 0.759409C8.61446 0.73139 8.8223 0.752428 9.01665 0.820778C9.34092 0.935322 9.60646 1.17392 9.7549 1.48415C9.90335 1.79437 9.92256 2.15084 9.80831 2.47522C9.77473 2.56861 9.73065 2.65789 9.67692 2.74133C9.13498 3.73633 7.56915 4.43578 6.62081 4.44439C5.88831 3.84244 5.10831 2.31522 5.31053 1.20078C5.32081 1.10411 5.34165 1.00689 5.37498 0.911334Z" fill="#DD2E44"/>
</svg>
