<svg width="14" height="14" viewBox="0 0 14 14" fill="none" xmlns="http://www.w3.org/2000/svg">
<path d="M4.88834 11.1695H4.58923C2.19641 11.1695 1 10.5713 1 7.58026V4.58923C1 2.19641 2.19641 1 4.58923 1H9.37488C11.7677 1 12.9641 2.19641 12.9641 4.58923V7.58026C12.9641 9.97308 11.7677 11.1695 9.37488 11.1695H9.07577C8.89033 11.1695 8.71087 11.2592 8.59721 11.4088L7.6999 12.6052C7.30508 13.1316 6.65902 13.1316 6.26421 12.6052L5.3669 11.4088C5.27119 11.2772 5.04985 11.1695 4.88834 11.1695Z" stroke="#808385" stroke-miterlimit="10" stroke-linecap="round" stroke-linejoin="round"/>
<path d="M9.37248 6.38385H9.37847M6.97906 6.38385H6.98505M4.58624 6.38385H4.59103" stroke="#808385" stroke-width="1.3" stroke-linecap="round" stroke-linejoin="round"/>
</svg>
