<svg width="18" height="23" viewBox="0 0 18 23" fill="none" xmlns="http://www.w3.org/2000/svg">
<path d="M8.99798 1.96765C5.70772 1.96765 3.03376 4.65106 3.03376 7.95294V10.8359C3.03376 11.4444 2.77532 12.3721 2.46716 12.8908L1.32402 14.7961C0.618257 15.9732 1.10533 17.28 2.39758 17.7189C6.68188 19.1554 11.3041 19.1554 15.5884 17.7189C16.7912 17.3199 17.3181 15.8934 16.662 14.7961L15.5189 12.8908C15.2206 12.3721 14.9622 11.4444 14.9622 10.8359V7.95294C14.9622 4.66103 12.2783 1.96765 8.99798 1.96765Z" stroke="#292D32" stroke-width="2" stroke-miterlimit="10" stroke-linecap="round"/>
<path d="M10.837 2.25691C9.63488 1.91334 8.3611 1.91334 7.15903 2.25691C7.4473 1.51873 8.163 1 8.99799 1C9.83298 1 10.5487 1.51873 10.837 2.25691Z" stroke="#292D32" stroke-width="2" stroke-miterlimit="10" stroke-linecap="round" stroke-linejoin="round"/>
<path d="M11.9802 18.078C11.9802 19.724 10.6382 21.0706 8.99807 21.0706C8.18296 21.0706 7.42749 20.7315 6.89071 20.1928C6.33222 19.6315 6.01774 18.8712 6.01596 18.078" stroke="#292D32" stroke-width="2" stroke-miterlimit="10"/>
</svg>
