<svg width="22" height="23" viewBox="0 0 22 23" fill="none" xmlns="http://www.w3.org/2000/svg">
<path d="M21 21.0707L19 19.0636M10.5 20.0671C11.7476 20.0671 12.9829 19.8205 14.1355 19.3414C15.2881 18.8623 16.3354 18.1601 17.2175 17.2748C18.0997 16.3895 18.7994 15.3386 19.2769 14.1819C19.7543 13.0252 20 11.7855 20 10.5336C20 9.2816 19.7543 8.0419 19.2769 6.88523C18.7994 5.72856 18.0997 4.67759 17.2175 3.79232C16.3354 2.90704 15.2881 2.20481 14.1355 1.7257C12.9829 1.24659 11.7476 1 10.5 1C7.98044 1 5.56408 2.00443 3.78249 3.79232C2.00089 5.58021 1 8.00511 1 10.5336C1 13.062 2.00089 15.4869 3.78249 17.2748C5.56408 19.0627 7.98044 20.0671 10.5 20.0671Z" stroke="#292D32" stroke-width="2" stroke-linecap="round" stroke-linejoin="round"/>
</svg>
