<svg width="19" height="21" viewBox="0 0 19 21" fill="none" xmlns="http://www.w3.org/2000/svg">
<path d="M17.9996 10.0353H15.9996C15.7344 10.0353 15.4801 10.1411 15.2925 10.3293C15.105 10.5175 14.9996 10.7727 14.9996 11.0389C14.9996 11.305 15.105 11.5603 15.2925 11.7485C15.4801 11.9367 15.7344 12.0424 15.9996 12.0424V14.0495H14.8154C14.9339 13.7281 14.9963 13.3886 14.9996 13.0459C14.9997 12.3832 14.7819 11.7389 14.3799 11.2131C13.9779 10.6873 13.4142 10.3093 12.7762 10.1378C12.1383 9.96635 11.4618 10.0109 10.8517 10.2647C10.2416 10.5184 9.73201 10.9671 9.40197 11.5411C9.33567 11.6553 9.29251 11.7815 9.27495 11.9125C9.25739 12.0435 9.26579 12.1766 9.29965 12.3043C9.33352 12.432 9.39219 12.5518 9.47229 12.6567C9.5524 12.7616 9.65236 12.8495 9.76644 12.9156C9.88052 12.9816 10.0065 13.0243 10.1371 13.0414C10.2676 13.0584 10.4003 13.0494 10.5274 13.0148C10.6545 12.9803 10.7736 12.9209 10.8777 12.84C10.9819 12.7591 11.0691 12.6584 11.1344 12.5437C11.2222 12.3914 11.3484 12.2649 11.5002 12.177C11.6521 12.089 11.8243 12.0426 11.9996 12.0424C12.2648 12.0424 12.5192 12.1481 12.7067 12.3363C12.8943 12.5245 12.9996 12.7798 12.9996 13.0459C12.9996 13.3121 12.8943 13.5673 12.7067 13.7555C12.5192 13.9437 12.2648 14.0495 11.9996 14.0495C11.7344 14.0495 11.4801 14.1552 11.2925 14.3434C11.105 14.5316 10.9996 14.7869 10.9996 15.053C10.9996 15.3192 11.105 15.5744 11.2925 15.7626C11.4801 15.9508 11.7344 16.0565 11.9996 16.0565C12.2648 16.0565 12.5192 16.1623 12.7067 16.3505C12.8943 16.5387 12.9996 16.7939 12.9996 17.0601C12.9996 17.3262 12.8943 17.5815 12.7067 17.7697C12.5192 17.9579 12.2648 18.0636 11.9996 18.0636C11.8243 18.0634 11.6521 18.017 11.5002 17.9291C11.3484 17.8411 11.2222 17.7146 11.1344 17.5623C11.0691 17.4476 10.9819 17.3469 10.8777 17.266C10.7736 17.1851 10.6545 17.1257 10.5274 17.0912C10.4003 17.0566 10.2677 17.0476 10.1371 17.0646C10.0065 17.0817 9.88053 17.1244 9.76645 17.1904C9.65237 17.2564 9.55241 17.3444 9.4723 17.4493C9.3922 17.5542 9.33353 17.6739 9.29966 17.8017C9.2658 17.9294 9.2574 18.0625 9.27496 18.1935C9.29252 18.3245 9.33568 18.4507 9.40198 18.5649C9.73203 19.1389 10.2416 19.5876 10.8517 19.8413C11.4618 20.0951 12.1383 20.1396 12.7762 19.9681C13.4141 19.7967 13.9778 19.4187 14.3799 18.8929C14.7819 18.3671 14.9997 17.7228 14.9996 17.0601C14.9963 16.7174 14.9339 16.3779 14.8154 16.0565H15.9996V19.0671C15.9996 19.3333 16.105 19.5885 16.2925 19.7767C16.4801 19.9649 16.7344 20.0707 16.9996 20.0707C17.2648 20.0707 17.5192 19.9649 17.7067 19.7767C17.8943 19.5885 17.9996 19.3333 17.9996 19.0671V12.0424C18.2648 12.0424 18.5192 11.9367 18.7067 11.7485C18.8943 11.5603 18.9996 11.305 18.9996 11.0389C18.9996 10.7727 18.8943 10.5175 18.7067 10.3293C18.5192 10.1411 18.2648 10.0353 17.9996 10.0353ZM6.02991 9.27534C6.09427 9.53344 6.25817 9.75531 6.48554 9.89214C6.59812 9.95989 6.72289 10.0047 6.85274 10.0241C6.98259 10.0434 7.11497 10.0369 7.24231 10.005C7.36966 9.97298 7.48948 9.91614 7.59494 9.83768C7.70039 9.75923 7.78942 9.6607 7.85693 9.54772C7.92445 9.43474 7.96912 9.30952 7.98841 9.17922C8.0077 9.04891 8.00123 8.91607 7.96936 8.78827L6.21252 1.73365C6.08921 1.23847 5.80448 0.798879 5.40361 0.484753C5.00273 0.170627 4.50872 0 4.00012 0C3.49151 0 2.9975 0.170627 2.59663 0.484753C2.19576 0.798879 1.91103 1.23847 1.78772 1.73365L0.029908 8.78827C-0.0344548 9.04636 0.00598593 9.31955 0.142333 9.54772C0.278681 9.77589 0.499766 9.94037 0.756953 10.005C1.01414 10.0695 1.28636 10.029 1.51373 9.89214C1.7411 9.75531 1.905 9.53344 1.96936 9.27534L2.53015 7.02474H5.46942L6.02991 9.27534ZM3.03027 5.01767L3.72717 2.22071C3.7483 2.16525 3.7857 2.11754 3.83444 2.08388C3.88318 2.05021 3.94095 2.03219 4.00012 2.03219C4.05928 2.03219 4.11706 2.05021 4.16579 2.08388C4.21453 2.11754 4.25194 2.16525 4.27307 2.22071L4.9696 5.01767H3.03027ZM10.9996 5.01767H11.9996C12.2648 5.01794 12.519 5.12375 12.7064 5.31189C12.8939 5.50004 12.9994 5.75513 12.9996 6.02121V7.02474C12.9996 7.29089 13.105 7.54615 13.2925 7.73434C13.4801 7.92254 13.7344 8.02827 13.9996 8.02827C14.2648 8.02827 14.5192 7.92254 14.7067 7.73434C14.8943 7.54615 14.9996 7.29089 14.9996 7.02474V6.02121C14.9988 5.22301 14.6824 4.45776 14.12 3.89335C13.5576 3.32894 12.795 3.01148 11.9996 3.01061H10.9996C10.7344 3.01061 10.4801 3.11633 10.2925 3.30453C10.105 3.49273 9.99963 3.74799 9.99963 4.01414C9.99963 4.28029 10.105 4.53554 10.2925 4.72374C10.4801 4.91194 10.7344 5.01767 10.9996 5.01767ZM6.99963 14.0495H5.99963C5.73449 14.0492 5.48029 13.9434 5.29281 13.7553C5.10533 13.5671 4.99989 13.312 4.99963 13.0459V12.0424C4.99963 11.7763 4.89427 11.521 4.70674 11.3328C4.5192 11.1446 4.26484 11.0389 3.99963 11.0389C3.73441 11.0389 3.48006 11.1446 3.29252 11.3328C3.10498 11.521 2.99963 11.7763 2.99963 12.0424V13.0459C3.0005 13.8441 3.31685 14.6094 3.87927 15.1738C4.44169 15.7382 5.20425 16.0557 5.99963 16.0565H6.99963C7.26485 16.0565 7.5192 15.9508 7.70674 15.7626C7.89427 15.5744 7.99963 15.3192 7.99963 15.053C7.99963 14.7869 7.89427 14.5316 7.70674 14.3434C7.5192 14.1552 7.26485 14.0495 6.99963 14.0495Z" fill="#292D32"/>
</svg>
