<svg width="15" height="13" viewBox="0 0 15 13" fill="none" xmlns="http://www.w3.org/2000/svg">
<path d="M3.526 11.604H7.318C8.29082 11.604 9.09954 11.4483 9.64297 10.9059C10.1866 10.3633 10.344 9.55431 10.344 8.578V3.526C10.344 2.55067 10.1885 1.74136 9.64555 1.19845C9.10264 0.655529 8.29333 0.5 7.318 0.5H3.526C2.55067 0.5 1.74136 0.655529 1.19845 1.19845C0.655529 1.74136 0.5 2.55067 0.5 3.526V8.578C0.5 9.28484 0.674896 10.0444 1.16794 10.6359C1.67436 11.2434 2.45827 11.604 3.526 11.604Z" stroke="#808385" stroke-linecap="round" stroke-linejoin="round"/>
<path d="M11.7047 9.33951C11.7161 9.34945 11.7281 9.3588 11.7404 9.36754C12.1724 9.67245 12.6944 9.90196 13.1703 9.77688C13.4314 9.70826 13.6405 9.5408 13.774 9.29973C13.9004 9.0714 13.9499 8.79553 13.9499 8.49991V3.49995C13.9499 3.2044 13.9004 2.92858 13.7737 2.70041C13.6397 2.45928 13.43 2.29279 13.1692 2.22496C12.6946 2.10156 12.1735 2.32983 11.7422 2.6311C11.7292 2.6402 11.7167 2.64999 11.7047 2.66042L10.5547 3.66032C10.4564 3.74579 10.3999 3.86965 10.3999 3.99991V8.00015C10.3999 8.13042 10.4564 8.25429 10.5547 8.33976L11.7047 9.33951ZM6.69999 5.90199C7.05803 5.90199 7.40141 5.75976 7.65458 5.50658C7.90776 5.25341 8.04999 4.91003 8.04999 4.55199C8.04999 4.19395 7.90776 3.85057 7.65458 3.59739C7.40141 3.34422 7.05803 3.20199 6.69999 3.20199C6.34195 3.20199 5.99857 3.34422 5.74539 3.59739C5.49222 3.85057 5.34999 4.19395 5.34999 4.55199C5.34999 4.91003 5.49222 5.25341 5.74539 5.50658C5.99857 5.75976 6.34195 5.90199 6.69999 5.90199Z" stroke="#808385" stroke-width="0.9" stroke-linecap="round" stroke-linejoin="round"/>
</svg>
