<svg width="9" height="9" viewBox="0 0 9 9" fill="none" xmlns="http://www.w3.org/2000/svg">
<path d="M5.27727 0.649891L6.07145 2.24701C6.17846 2.46789 6.46572 2.67744 6.70791 2.72275L8.14418 2.96062C9.06226 3.11353 9.2763 3.78183 8.6173 4.45013L7.49645 5.57717C7.31058 5.76407 7.20356 6.1322 7.26552 6.39839L7.58657 7.79162C7.84003 8.89034 7.25426 9.32077 6.29111 8.74309L4.94496 7.93887C4.70277 7.79162 4.29723 7.79162 4.05504 7.93887L2.70889 8.74309C1.74574 9.31511 1.15997 8.89034 1.41343 7.79162L1.73448 6.39839C1.79644 6.13786 1.68942 5.76973 1.50355 5.57717L0.382697 4.45013C-0.276297 3.78749 -0.0622643 3.1192 0.855821 2.96062L2.29209 2.72275C2.53428 2.6831 2.82154 2.46789 2.92855 2.24701L3.72273 0.649891C4.14516 -0.21663 4.84358 -0.21663 5.27727 0.649891Z" fill="white"/>
</svg>
