<svg width="25" height="25" viewBox="0 0 25 25" fill="none" xmlns="http://www.w3.org/2000/svg">
<rect width="25" height="25" rx="12.5" fill="white"/>
<path d="M20 13.1894V13.9789C20 14.0822 19.9595 14.1814 19.8872 14.2552C19.8149 14.329 19.7165 14.3715 19.6132 14.3736H18.4605C18.0421 14.3736 17.6632 14.0657 17.6316 13.6552C17.6079 13.4105 17.7026 13.1815 17.8605 13.0236C17.932 12.9496 18.018 12.8911 18.113 12.8517C18.2081 12.8123 18.3103 12.7929 18.4132 12.7947H19.6053C19.8342 12.8026 20 12.9762 20 13.1894Z" fill="#292D32"/>
<path d="M17.2684 12.4394C16.8736 12.8263 16.6842 13.4026 16.8421 14.0026C17.0473 14.7368 17.7658 15.2026 18.5236 15.2026H19.2105C19.6447 15.2026 20 15.5578 20 15.992V16.142C20 17.7762 18.6658 19.1105 17.0315 19.1105H7.96841C6.33421 19.1105 5 17.7762 5 16.142V10.8289C5 9.85785 5.46579 8.99732 6.18421 8.46048C6.68157 8.08154 7.29736 7.86048 7.96841 7.86048H17.0315C18.6658 7.86048 20 9.19469 20 10.8289V11.1763C20 11.6105 19.6447 11.9657 19.2105 11.9657H18.4052C17.9631 11.9657 17.5605 12.1394 17.2684 12.4394ZM15.8552 6.22628C16.0684 6.43944 15.8868 6.77101 15.5868 6.77101L9.52367 6.76312C9.1763 6.76312 8.99473 6.3368 9.24736 6.09207L10.5263 4.80523C11.0474 4.28937 11.751 4 12.4842 4C13.2174 4 13.921 4.28937 14.4421 4.80523L15.8237 6.20259C15.8315 6.21049 15.8473 6.21838 15.8552 6.22628Z" fill="#292D32"/>
</svg>
